<?xml version="1.0" encoding="utf-8"?>
<!-- Generator: Adobe Illustrator 24.2.3, SVG Export Plug-In . SVG Version: 6.00 Build 0)  -->
<svg version="1.1" id="Layer_1" xmlns="http://www.w3.org/2000/svg" xmlns:xlink="http://www.w3.org/1999/xlink" x="0px" y="0px"
	 viewBox="0 0 163 16" style="enable-background:new 0 0 163 16;" xml:space="preserve">
<style type="text/css">
	.st0{opacity:0.7;fill:#3675F0;enable-background:new    ;}
</style>
<path class="st0" d="M131.9,0.7c3.5,1.4,28,0.1,29.8,0.5c1.6,0.6,0.1,10.7-1,12.2c-0.5,0.5-0.9,0.6-2.3,0.4c-2.1-0.5-28,0.2-28,0.2
	c-0.5-0.3-1.4,0.7-1.6,0.4c-0.5-0.9-42.4-0.1-46.2-0.1c-2.1,0-0.5-0.6-3-0.3c-5.4,0.4-17.3-0.1-21.5,0.4c-3.3,0.5-4,0.4-7.2,0
	c-3.3-0.3-20.5-0.1-22.4,0.7c-0.5,0.2-0.9,0.1-0.9-0.1c0,0-12.1-0.4-12.4-0.5c0-0.2-0.5-0.3-0.9-0.2c-0.7,0.2-13.5,0.9-13.8,0.3
	c-0.7-1.9,0.3-9.8,1.7-11.8C3.7,0.7,12.3,3.2,19,2l31.7,0.1l6.8-0.7c0.9,0.7,3.7-1,5.6,0.3c0.7,0.5,6.3,0.6,7.5,0.1
	c0.9-0.4,28.7,0.9,31.5-0.5C107,2.4,127.3,1,131.9,0.7z"/>
</svg>
