<svg width="107" height="85" fill="none" xmlns="http://www.w3.org/2000/svg"><g clip-path="url(#clip0)"><path d="M101.449 55.824c-.74-7.49-1.329-15.03-2.654-22.504-.147-.94-1.394-.882-1.35.003.105 5.094.617 10.141 1.052 15.214-8.94-16.076-24.52-28.034-41.955-31.182-19.864-3.592-40.71 4.483-52.591 21.157-.347.477.277 1.077.727.656 12.63-14.946 32.044-23.26 51.502-19.622 17.999 3.318 34.132 16.17 42.336 33.574.108.323.314.434.547.626.027.08.006.268.033.349-5.504-2.563-11.202-4.7-17.068-6.33-1.383-.346-1.745 1.845-.362 2.19a112.671 112.671 0 0118.277 6.915c.618.332 1.55-.16 1.506-1.046z" fill="#3675F0"/></g><defs><clipPath id="clip0"><path fill="#fff" transform="rotate(71.45 43.807 60.908)" d="M0 0h58.093v91.728H0z"/></clipPath></defs></svg>