<svg width="141" height="27" fill="none" xmlns="http://www.w3.org/2000/svg"><path d="M114.599 18.61c0 1.283-1.028 2.345-2.313 2.345a2.364 2.364 0 01-2.35-2.344c0-1.283 1.065-2.308 2.35-2.308a2.3 2.3 0 012.313 2.308zm24.675.257V.037h-5.875v2.088h1.726v16.742h-1.726v2.088H141v-2.088h-1.726zm-14.1-.073c-1.652 0-3.672-1.722-3.672-5.276v-.036c0-3.554 2.02-5.276 3.672-5.276 2.13 0 3.525 1.246 3.525 5.312 0 4.067-1.395 5.276-3.525 5.276zm.992-13.079c-2.13 0-3.782 1.246-4.774 3.187l-.404-2.784h-5.361v2.088h1.689v16.706h-1.689V27h7.601v-2.088h-1.726v-6.595c.992 1.796 2.607 2.968 4.664 2.968 4.479 0 6.719-3.48 6.719-7.767 0-4.323-2.24-7.803-6.719-7.803zM79.313 8.206V6.118h-5.875v2.088h1.725v10.661h-1.725v2.088h7.6v-2.088h-1.725V8.207zm-27.54 4.104c0-4.433-1.468-6.595-5.067-6.595-2.276 0-4.26 1.026-5.397 3.15l-.368-2.747h-5.397v2.088h1.726v10.661h-1.726v2.088h7.6v-2.088H41.42v-5.385c.037-3.15 2.02-5.056 3.488-5.056 1.983 0 2.68.696 2.68 3.847v6.594h-1.689v2.088h7.564v-2.088h-1.689V12.31zm25.483-7.657c1.249 0 2.314-1.063 2.314-2.345C79.57 1.026 78.505 0 77.256 0c-1.285 0-2.35 1.026-2.35 2.308a2.364 2.364 0 002.35 2.345zM13.035 14.36h-.037v.038c0 3.26-1.505 4.469-3.488 4.469H5.875v-8.353H9.51c1.983 0 3.488.55 3.488 3.81v.037h.074-.037zM5.875 2.126h2.423c1.983 0 3.489.293 3.489 2.857v.037h.073-.073v.037c0 2.564-1.506 3.517-3.489 3.517H5.875V2.125zm6.536 7.034c2.13-.586 3.562-1.795 3.562-4.14 0-4.36-3.452-4.982-7.675-4.982H0v2.088h1.726v16.742H0v2.088h9.51c4.223 0 7.674-1.612 7.674-6.594 0-3.627-1.982-4.836-4.773-5.202zm50.892-.954h2.424l-5.545 5.532V.037h-5.875v2.088h1.726v16.742h-1.726v2.088h7.6v-2.088h-1.725v-2.015l2.644-2.674 2.68 4.689h-1.469v2.088h7.601v-2.088H70.06l.037-.037-4.333-7.583 3.011-3.04h2.864v-2.09h-8.335v2.088zm44.246-2.491c-1.579 0-3.782 1.209-4.369 3.077l-.404-2.674h-5.361v2.088h1.689v10.661h-1.69v2.088h7.565v-2.088h-1.689v-5.422c0-3.81 1.615-5.019 3.084-5.019.221 0 .331.037.441.11a2.195 2.195 0 00-.257.99c0 1.208.991 2.16 2.166 2.16 1.212 0 2.167-.952 2.167-2.747 0-2.345-1.469-3.224-3.342-3.224zm-79.092 7.803v.037c0 3.15-1.946 5.092-3.855 5.092-1.433 0-2.314-.842-2.314-2.051v-.037c0-2.638 4.553-3.224 6.169-3.37v.33zm4.186-2.71c0-3.664-1.763-5.093-7.05-5.093-3.782 0-6.866 1.575-6.866 3.297v.513c0 1.21.99 2.162 2.203 2.162a2.168 2.168 0 002.166-2.162c0-.403-.11-.77-.33-1.062.477-.44 1.836-.623 2.827-.623v-.037c1.873 0 2.864.953 2.864 2.968v.659c-.624.073-1.91.22-4.406.66-3.672.659-5.912 2.637-5.912 5.092 0 2.674 1.91 4.14 5.03 4.14 2.093 0 4.113-1.173 5.435-2.968l.587 2.601h5.141v-2.088h-1.69v-8.06zm53.132 1.575c.184-2.601 1.175-4.58 3.452-4.58 2.276 0 3.23 1.979 3.451 4.58h-6.903zm3.452-6.668c-5.325 0-7.675 3.517-7.675 7.803 0 4.323 2.35 7.804 7.675 7.804 3.23 0 5.838-1.356 7.05-4.433l-3.048-.77c-.808 1.759-1.91 2.748-4.002 2.748-2.314 0-3.268-1.649-3.452-4.286h11.09v-.44c0-4.909-2.35-8.426-7.638-8.426z" fill="#1A1A1A"/></svg>