<svg width="234" height="37" fill="none" xmlns="http://www.w3.org/2000/svg"><g clip-path="url(#clip0)" fill="#0D0708"><path d="M15.556 8.914l.055 8.807h2.19V7.948c0-2.148-2.08-3.544-4.107-3.544-1.753.053-3.013.483-4.327 1.288-.767-.805-1.972-1.288-3.232-1.288-2.41.053-3.615.805-5.587 2.201v11.116h2.19V6.874c.33-.376 1.26-.913 2.082-.967 2.246-.16 3.232 1.02 3.232 3.007v8.807h2.191V7.787c0-.322-.055-.698-.11-.967.493-.376 1.48-.913 2.246-.967 2.246-.053 3.177 1.075 3.177 3.061zm10.627-4.51c-1.863 0-3.068.322-4.656 1.127l.547 1.235c1.205-.59 2.191-.913 3.506-.913 1.479 0 2.903 1.02 2.903 2.524v1.29h-3.615c-2.574-.054-4.601 1.503-4.601 4.08-.055 2.417 1.917 4.297 4.327 4.35 2.684.054 4.766-.966 6.025-2.255V8.27c0-2.47-2.19-3.866-4.436-3.866zm2.245 11.17c-.383.429-1.588 1.127-2.903 1.073-1.752 0-3.067-1.45-3.067-2.953 0-1.665 1.26-2.632 3.013-2.632 1.095-.053 2.245-.053 2.957-.053v4.564zM36.37 7.25c.768-.645 1.754-1.182 3.233-1.182h.054c.329 0 .822.108 1.26.161.22-.537.603-1.235.877-1.718-1.863-.322-3.123-.054-4.437.43a7.744 7.744 0 00-3.123 1.986v10.74h2.191V7.25h-.054zm12.435 1.825l4.491-3.973-1.095-1.02-6.354 5.638V0H43.6v17.721h2.246v-5.96l1.26-1.128 4.71 7.088H54.5l-5.696-8.646zm17.857 6.498c-1.15.537-2.246 1.074-3.78 1.074-2.52.108-4.327-2.255-4.053-5.692h8.27c-.054-4.081-1.424-6.605-5.203-6.605-3.944 0-5.368 3.598-5.423 7.035 0 2.255.877 4.296 2.356 5.53 1.588 1.343 4.108 1.29 6.08.753.876-.269 1.588-.645 2.3-1.128l-.547-.967zM61.95 5.746c1.972 0 2.848 2.04 2.848 3.974l-.055-.054H58.83c.219-1.88.986-3.92 3.122-3.92zm11.997 12.298v-1.182c-1.589-.054-2.575-.483-2.575-2.255V5.96h5.532v11.921h2.246V4.511h-7.723V0h-2.3v4.51h-1.534v1.45h1.533v8.754c0 2.255 1.808 3.598 4.82 3.33zM84.902 6.39c.712-.483 1.862-1.02 3.122-1.073 2.026-.054 3.396 1.127 3.396 3.168v9.236h2.3V7.411c0-1.826-1.478-3.007-3.122-3.383-1.643-.376-3.177-.054-4.327.268-1.424.376-2.465 1.02-3.67 1.826v11.6h2.3V6.39zm16.816 11.6c1.752.054 3.012-.483 4.436-1.396.055.322 0 .59 0 .966 0 .967-.054 2.685-.493 3.49-.383.699-.985 1.075-1.698 1.397h2.849c.274-.268.547-.483.712-.805.712-1.236.767-3.223.767-4.887l.054-10.257c-1.971-1.665-4.546-2.47-6.627-2.47-3.615 0-5.368 4.027-5.368 7.034-.055 3.276 1.643 6.928 5.368 6.928zm.821-12.405c1.37 0 2.356.483 3.506 1.181v8.324c-1.205.698-2.301 1.396-3.67 1.396-2.739 0-3.56-3.222-3.56-5.37 0-2.202.821-5.531 3.724-5.531zm19.774 12.136l3.013-10.364 3.506 10.364h1.807l3.889-13.317h-1.588l-2.849 10.042-3.396-10.042h-2.081l-2.903 10.042-3.342-10.042h-2.3l4.382 13.317h1.862zm21.198-.805c1.26.752 2.575 1.235 4.108 1.235 3.725-.107 5.478-3.33 5.478-6.766-.055-3.867-1.698-7.304-5.423-7.25l-.055-.054c-4.601.054-6.408 2.363-6.354 2.363l-.054 16.433h2.245v-5.961h.055zm-.055-10.257c.329-.322 1.863-1.181 3.835-1.074 2.848.107 3.231 3.437 3.231 5.638 0 2.256-.383 5.156-3.396 5.317-1.424.107-2.903-.698-3.67-1.181v-8.7zm14.352.376c.821-.645 1.807-1.235 3.286-1.235h.055c.328 0 .821.107 1.26.16.274-.536.602-1.234.876-1.771-1.862-.322-3.177-.054-4.546.43a8.05 8.05 0 00-3.232 2.04v11.062h2.246V7.035h.055zm9.969 11.062c2.738.054 4.875-1.02 6.189-2.309V8.001c0-2.47-2.245-3.973-4.546-3.973-1.862 0-3.122.322-4.765 1.181l.547 1.289c1.205-.59 2.246-.967 3.615-.967 1.534 0 2.958 1.02 2.958 2.578V9.45h-3.724c-2.63-.053-4.711 1.558-4.711 4.19-.11 2.47 1.917 4.403 4.437 4.456zm.931-7.196c1.15-.053 2.3-.053 3.013-.053v4.618c-.384.43-1.644 1.128-2.958 1.128-1.808 0-3.123-1.45-3.123-3.008 0-1.718 1.315-2.685 3.068-2.685zm10.626 6.82v-5.96l1.26-1.128 4.766 7.088h2.629l-5.697-8.646 4.492-3.973-1.096-1.02-6.354 5.638.055-9.72h-2.3v17.721h2.245zm11.174-3.007c0 2.31 1.808 3.652 4.821 3.33v-1.182c-1.589-.054-2.575-.483-2.575-2.255V5.96h2.575V4.51h-2.52V0h-2.246v4.51h-1.588v1.45h1.533v8.754zm11.613 3.491c2.739 0 4.272-.752 4.93-1.074.054.322 0 .268 0 .59 0 .967-.055 2.686-.493 3.545-.384.698-.986 1.074-1.698 1.396h2.903c.273-.269.547-.483.712-.806.657-1.235.767-3.598.767-5.209V4.404h-2.301v11.062c-.767.483-2.136 1.181-3.396 1.181-2.027.054-3.56-1.074-3.56-3.114v-9.13h-2.301v9.828c0 2.524 2.355 3.974 4.437 3.974zm14.789-.108c2.027 0 3.67-.537 5.039-1.396l-.602-1.181c-1.26.59-2.301 1.127-3.78 1.074-2.574-.054-3.889-2.9-3.889-5.317 0-2.524 1.205-5.585 3.67-5.692 1.041-.054 2.356.322 3.287.752l.657-1.182c-2.136-1.342-5.039-1.396-6.956-.107-1.918 1.289-2.958 3.76-2.958 6.283-.055 3.33 2.026 6.713 5.532 6.766zm8.545-1.127c1.643 1.342 4.218 1.342 6.19.751.931-.268 1.643-.698 2.355-1.127l-.548-1.074c-1.15.537-2.3 1.074-3.889 1.127-2.574.108-4.382-2.309-4.163-5.8h8.49c-.054-4.188-1.479-6.766-5.313-6.766-4.053 0-5.532 3.652-5.532 7.25 0 2.255.876 4.35 2.41 5.639zm3.232-11.492c2.026 0 2.903 2.094 2.903 4.08l-.055-.053h-6.025c.164-1.933.931-4.027 3.177-4.027zM3.56 33.187c0 .054-.054.108-.11.108-.054 0-.054-.054-.109-.108l-1.698-6.014H0v7.733h.876v-6.982c0-.053.055-.107.11-.107s.055.054.055.054l1.917 7.035h.876l1.917-6.982c0-.053.055-.053.11-.053s.055.053.055.107v6.981h.876v-7.786H5.15l-1.59 6.014zm5.478-5.317h.657v6.391h-.657v.645h2.52v-.645h-.713v-6.39h.713v-.698h-2.52v.698zm5.806 3.491h2.739v-.966h-2.794v-2.256h3.78v-.966h-4.875v7.733h5.094v-.967h-3.944V31.36zm9.148-.591l-1.589-.697c-.274-.108-.876-.43-.876-1.128 0-.752.712-1.02 1.205-1.02.93 0 1.26.537 1.643 1.235l.931-.537c-.493-1.074-1.37-1.665-2.52-1.665-1.26 0-2.245.806-2.245 1.987 0 .537.11.86.219 1.074.274.43.821.806 1.314 1.02l1.37.645c.821.376.986.805.986 1.181 0 .86-.712 1.235-1.37 1.235-1.04 0-1.588-.752-1.807-1.396l-.986.644c.164.376.383.752.876 1.182.548.43 1.315.59 1.808.59.438 0 1.04 0 1.698-.536.493-.43.767-1.02.767-1.773 0-.59-.165-.859-.274-1.02-.329-.537-.877-.86-1.15-1.02zm2.958-2.9h.712v6.391h-.712v.645h2.52v-.645h-.713v-6.39h.712v-.698h-2.52v.698zm14.953 5.747c-.11.161-.438.59-1.04.59-1.315 0-1.59-1.664-1.59-3.329 0-.107.056-1.181.33-1.88.164-.429.492-1.02 1.314-1.02.877 0 1.205.698 1.315 1.397l1.04-.215c-.054-.376-.164-.967-.712-1.504-.493-.483-1.15-.644-1.643-.644-2.246 0-2.684 2.255-2.684 4.027 0 3.706 1.972 4.028 2.575 4.028.273 0 1.095 0 1.752-.645.493-.483.712-1.127.767-1.718l-1.095-.215c-.11.322-.165.806-.329 1.128zm4.82.322c-.11 0-.274 0-.438.054h-.164l-.055-.054c0-.161 0-.161.22-.483.328-.484.656-.913 1.15-1.773l2.355-3.812v-.645h-5.04v.967h2.137c.328 0 .986-.054 1.095-.054h.274c.055 0 .055.054.11.054 0 .054-.055.107-.055.107a1.176 1.176 0 01-.22.269l-.328.483-3.122 5.048v.806h5.368v-.967h-3.287zm9.531-2.202v1.128c0 .107.055.644.055.752 0 .107 0 .107-.055.16H56.2c-.054-.107-.273-.751-.328-.858l-.329-.752-2.3-4.994h-1.37v7.733h.877V29.75c0-.053-.055-1.235-.055-1.45 0-.053 0-.053.055-.107h.054c.055.161.329 1.02.658 1.665l2.3 5.048h1.37v-7.733h-.877v4.564zm2.958-3.867h.657v6.391h-.657v.645h2.465v-.645h-.657v-6.39h.657v-.698h-2.465v.698zm5.642-.697h-1.096v7.733h1.096v-7.733zm4.656.161v-.161h-1.26l-3.122 3.598 3.122 4.135h1.315v-.108l-3.123-4.027 3.068-3.437zm-33.413 9.021c-.329 0-.548-.16-.548-.43 0-.321.274-.697.657-.966h.493v-.966h-3.943v-2.578h2.738v-.967h-2.793v-2.255h3.78v-.967h-4.876v7.68h3.835c-.329.268-.658.698-.658 1.181 0 .59.384.913 1.041.913.329 0 .657-.054.931-.215l-.164-.537c-.164.054-.329.108-.493.108zm197.958-9.343H72.796v7.894h161.259v-7.894zM78 1.343c.822 0 1.534-.591 1.643-1.343h-3.286c.11.752.821 1.343 1.643 1.343z"/></g><defs><clipPath id="clip0"><path fill="#fff" d="M0 0h234v37H0z"/></clipPath></defs></svg>