<svg width="109" height="38" fill="none" xmlns="http://www.w3.org/2000/svg"><path d="M35.05 8.398c0 1.15-.284 2.044-.855 2.715-.57.67-1.52.99-2.82.99H25.64v7.185H20V.224h11.47c1.3 0 2.187.287 2.757.83.539.543.824 1.469.824 2.714v4.63zm-5.196-5.077H25.64v5.652h4.214V3.321zM50.975 15.52c0 1.213-.285 2.107-.887 2.777-.57.64-1.458.99-2.662.99-.57.032-1.109.032-1.616.032-.443.032-.855.032-1.299.032h-1.806c-.349 0-.729 0-1.11-.032-.443 0-.886 0-1.362-.032-1.299-.032-2.186-.35-2.756-.958-.539-.606-.824-1.532-.824-2.81V4.502h5.196v11.464h3.93V4.502h5.196V15.52zm1.395 3.767V0h5.164v19.287h-5.165zm19.621-4.694c0 .767-.031 1.437-.126 2.012-.096.575-.254 1.086-.507 1.469-.254.415-.603.702-1.078.926-.443.224-1.045.32-1.806.32H59v-3.13h8.587v-2.62h-5.102c-.76 0-1.394-.095-1.837-.287-.476-.192-.824-.447-1.046-.798-.222-.352-.38-.83-.475-1.373A17.326 17.326 0 0159 9.133c0-.67.032-1.278.127-1.852.095-.575.253-1.054.507-1.437.253-.415.602-.703 1.077-.958.475-.224 1.077-.352 1.838-.352h8.777v3.13h-7.351v2.618h4.53c.761 0 1.395.096 1.839.256.443.191.792.447 1.045.83.254.351.412.798.476 1.341.063.543.126 1.182.126 1.884zM18.378 33.657c0 1.341-.317 2.395-.982 3.162-.666.734-1.743 1.117-3.264 1.117H0v-22.32h13.023c.729 0 1.394.063 1.965.159a3.37 3.37 0 011.457.607c.412.319.697.734.919 1.277.222.543.317 1.213.317 2.076v3.001c0 .447-.032.894-.095 1.341a3.63 3.63 0 01-.38 1.214c-.19.383-.508.702-.888.958-.412.287-.919.447-1.552.543.602.064 1.14.16 1.584.255.444.128.855.32 1.14.607.318.287.54.67.666 1.181.159.511.222 1.15.222 1.98v2.842zm-6.844-14.561H6.559v5.716h4.975v-5.716zm.317 9.165H6.559v6.195h5.292V28.26zm8.111 9.675V21.491h5.672v16.445h-5.672zm7.541 0v-3.32l7.89-9.325h-7.541v-3.8h14.29v3.353l-7.921 9.292h7.953v3.8h-14.67zm25.825 0v-12.71h-4.373v12.71h-5.767V25.355c0-2.587 1.3-3.864 3.898-3.864h8.143c1.457 0 2.471.319 3.01.99.57.67.855 1.628.855 2.874v12.581h-5.766zm13.022-6.993v3.033h9.126v3.96H64.544c-.823 0-1.489-.128-1.996-.351-.507-.256-.919-.543-1.204-.958a3.295 3.295 0 01-.602-1.31 7.033 7.033 0 01-.158-1.373v-8.206c0-1.341.316-2.363.982-3.066.634-.702 1.616-1.085 2.947-1.117.57 0 1.14 0 1.647-.032h1.3c.443 0 .76-.032.95-.032.19 0 .507 0 .95.032.444.032.856 0 1.3 0 .507.032 1.046.032 1.616.032 1.394.032 2.376.35 2.978 1.021.602.671.887 1.66.887 2.97v5.397h-9.79zm4.088-5.972h-4.12v3.832h4.12v-3.832zM91.7 32.7c0 .83-.032 1.596-.127 2.234-.095.64-.285 1.182-.57 1.63a2.624 2.624 0 01-1.173 1.02c-.507.224-1.172.352-2.028.352h-10.52v-3.48h9.538V31.55h-5.672c-.856 0-1.553-.096-2.06-.288a2.578 2.578 0 01-1.172-.894 3.644 3.644 0 01-.507-1.533c-.095-.638-.127-1.373-.127-2.203 0-.735.032-1.437.127-2.044a4.5 4.5 0 01.539-1.596 2.902 2.902 0 011.172-1.054c.507-.256 1.204-.383 2.028-.383h9.76v3.48h-8.144v2.906h5.038c.855 0 1.553.096 2.028.288.507.191.887.51 1.172.894.285.415.444.894.507 1.5.064.607.19 1.278.19 2.076zm17.3 1.021c0 1.341-.317 2.363-.982 3.066-.666.734-1.648 1.085-2.947 1.117-.666.032-1.236.032-1.806.032-.475.032-.951.032-1.458.032h-1.996c-.412 0-.824 0-1.236-.032-.475 0-.982 0-1.52-.032-1.427-.032-2.44-.383-3.043-1.054-.602-.67-.918-1.724-.918-3.129v-12.23h5.766v12.74h4.373v-12.74H109v12.23z" fill="#191919"/></svg>