<svg width="186" height="28" viewBox="0 0 186 28" fill="none" xmlns="http://www.w3.org/2000/svg">
<path opacity="0.7" d="M28.9281 17.0949C28.2073 14.9195 25.8646 13.4403 22.6208 13.7883C15.2322 14.5715 8.65458 24.9261 6.67228 26.5794C5.0504 27.7106 -0.175661 19.9663 0.00454784 17.704C0.0946524 16.9209 0.455071 16.3118 1.80664 15.1806C2.07695 14.9195 2.70768 14.3104 3.60873 13.4403C4.50978 12.5701 5.68113 11.3519 7.21291 10.0467C8.74469 8.74153 10.6369 7.26229 12.9796 5.95708C21.6296 1.1713 32.0818 1.95443 38.8396 10.7429C39.4703 11.526 40.011 12.3091 40.7318 13.4403C40.7318 13.8754 42.0834 14.3974 41.9933 14.6585C41.9032 14.7455 42.3537 15.4416 42.8943 15.9637C47.9402 21.1845 58.3923 5.08694 75.0616 1.51936C82.0898 -0.0468954 88.8476 0.736232 94.9747 4.73888C97.1373 6.1311 96.1461 5.87006 97.0471 6.7402C97.2274 6.91423 102.453 11.2649 103.174 11.787C104.436 12.7442 105.607 13.2663 107.139 13.2663C112.185 13.1792 117.501 7.87139 120.024 6.1311C141.919 -8.92233 151.2 8.21944 156.877 10.3078C157.417 10.4818 157.688 10.7429 157.507 10.9169C161.922 14.4845 166.428 13.7013 167.419 13.6143C167.779 13.6143 167.959 13.6143 167.959 13.6143C168.05 13.7883 168.5 13.7883 168.77 13.5273C169.671 12.9182 171.383 12.8312 174.627 10.0467C175.078 9.52465 176.429 8.39347 177.06 7.52333L178.592 5.52201C178.862 5.26096 178.952 5.08694 179.042 5.08694C181.295 5.43499 187.602 11.526 185.62 14.8325C184.178 17.1819 181.205 19.4443 178.952 20.7495C176.7 21.9677 173.996 23.0989 171.113 23.795C148.227 29.0158 145.253 7.52333 133.9 11.0909C129.575 12.3961 127.773 14.6585 122.457 18.7481C121.826 18.8352 120.835 19.7053 119.483 20.6625C116.51 22.7508 115.879 22.3157 112.635 23.0989C92.632 27.7106 94.2539 10.8299 80.2877 11.7C78.5757 11.787 76.8637 12.1351 75.332 12.7442C72.2684 13.7883 70.0158 15.2676 69.4752 15.9637C64.0689 17.878 58.6626 23.969 51.7246 26.6664C37.6683 31.8873 31.6312 20.3144 28.9281 17.0949Z" fill="#FFAE60"/>
</svg>
