<svg width="382" height="71" fill="none" xmlns="http://www.w3.org/2000/svg"><path opacity=".7" d="M22.457 49.73C19.54 46.55.81 41.135 1.46 18.24c.118-3.063.421-4.856.669-5.207 1.456-1.388 24.665 3.117 28.118 4.514 1.154.405 1.366.955.63 1.829-.487.522-.839 3.577.012 5.775.645 1.469 1.763 2.775 6.172 3.667-.021.54 1.442-1.027 1.414-.306-.013.36 1.827 1.153 5.548 1.657 3.955.514 7.238.28 11.214.253 1.408-.126 3.049-.244 4.683-.18 6.325-.298 12.904-1.127 18.075-1.83 5.405-.693 9.395-1.08 10.57-1.216 2.815-.252.665.928 3.961.333 8.015-1.675 23.198-1.27 28.136-1.982 4.47-.73 5.404-.694 10.039.388.927.216 11.399 1.522 16.507 2.441 6.97 1.171 13.685 2.874 15.093 2.748.707-.153 1.16.225 1.146.586 0 0 4.607 1.802 7.82 3.37 3.673 1.765 7.332 3.892 7.332 3.892-.247.351.206.73.673.747 2.101.081 16.759 8.046 15.776 9.271-2.205 2.622-17.771 12.128-21.095 13.443-4.279 1.82-7.489-5.883-15.173-6.721a72.48 72.48 0 00-4.607-1.802c-7.834-3.01-17.103-5.172-26.428-5.892-3.523.405-2.349.27-7.287.982-.446-.559-1.394-.234-2.575.08-3.784 1.118-1.586-1.324-7.436-1.188-1.875.108-3.757.396-4.238.738-.24.172-2.582.262-5.631.505-4.45.19-29.763 1.739-32.407 3.622-2.781-.649-8.639-.333-14.023-.18-10.534.315-21.995.414-31.69-2.847z" fill="#FFAE60"/><path opacity=".7" d="M342.765 32.313c2.767 1.01 7.844-3.306 8.254-13.938.084-2.162-.08-3.973.401-4.315 1.449-1.208 24.295.576 28.421 2.72 1.147.586 1.352 1.316.589 2.91-.254.532-.585 3.046-1.424 6.623-2.56 11.812-9.02 21.668-22.345 27.651-.927-.216-1.718 2.1-2.404 1.712 0 0-24.835 7.343-71.158 1.946-3.028-.297-.425-1.099-4.161-1.243-7.711-.117-23.717-3.442-29.108-3.108-4.449.189-5.383.153-9.311-1.081-5.321-1.469-25.64-2.073-28.512-.379-.48.343-.947.325-1.16-.225l-.7-.027c-2.335-.09-5.377-.027-6.778-.081-3.743.036-7.266.441-7.259.261-.219-.37-.679-.567-.927-.216-.24.171-7.335 2.243-7.802 2.225-3.544.947-6.861 2.082-7.307 1.523-1.112-1.486-6.151-4.207-7.859-8.424-4.019-10.983-2.336-12.181.508-13.154 2.129-.64 4.011-.928 6.359-1.199 8.228-1.126 19.239-7.74 65.561-2.343l9.827-.162c.885 1.298 5.419-1.054 7.663 1.379.899.937 8.095 2.297 9.998 1.468.714-.333 10.231 1.478 19.769 2.748 9.537 1.27 19.11 1.64 21.026.45 4.834 1.992 23.56 1.451 29.839-3.72z" fill="#FFAE60"/></svg>