<svg width="187" height="24" fill="none" xmlns="http://www.w3.org/2000/svg"><g clip-path="url(#clip0)" fill="#000"><path d="M9.997 11.925c.935.225 1.798.75 2.446 1.575.647.825 1.007 1.95 1.007 3.3 0 1.8-.504 3.15-1.51 4.2-1.008.975-2.518 1.5-4.532 1.5H0V2.25h7.048c1.583 0 2.877.45 3.812 1.425.935.975 1.439 2.175 1.439 3.75 0 1.05-.216 1.95-.575 2.775-.36.825-.935 1.35-1.655 1.65l-.072.075zM6.833 4.5H2.589v6.525h4.675c.648 0 1.151-.225 1.51-.675.36-.45.576-.975.576-1.65V6.6c0-.675-.216-1.125-.72-1.5-.503-.375-1.006-.6-1.797-.6zm3.74 13.35v-2.4c0-.675-.288-1.275-.863-1.65-.576-.45-1.367-.6-2.23-.6H2.59v6.975h4.746c2.158 0 3.237-.75 3.237-2.325zm7.407-9.075c.936-.9 2.159-1.275 3.74-1.275 1.583 0 2.734.375 3.669 1.2.863.825 1.294 1.95 1.294 3.3v10.425H24.67l-.216-2.775h-.216c-.503.975-1.15 1.725-1.942 2.25-.791.525-1.654.825-2.517.825-1.295 0-2.23-.375-3.02-1.125-.72-.75-1.08-1.725-1.08-2.925 0-1.2.432-2.175 1.223-2.925.791-.75 1.87-1.125 3.236-1.125h4.1V12c0-.825-.216-1.425-.72-1.875-.43-.45-1.078-.675-1.87-.675-.79 0-1.438.225-1.941.75-.504.525-.72 1.125-.72 1.95h-2.445c0-1.35.504-2.475 1.439-3.375zM20.21 20.7c.792 0 1.655-.375 2.374-1.2.791-.825 1.294-1.875 1.51-3.15h-3.812c-.647 0-1.15.15-1.51.45-.36.3-.575.675-.575 1.2v1.125c0 .525.215.9.575 1.2.431.225.863.375 1.438.375zM37.544 7.575c.144 0 .36 0 .575.075v2.55c-1.007-.3-1.87 0-2.589.75-.791.75-1.295 1.8-1.654 3.075v8.55h-2.517V7.95l2.013-.15.36 3h.072c.791-2.175 2.086-3.225 3.74-3.225zM46.606 20.4v1.875c-.72.3-1.438.45-2.373.45-.935 0-1.726-.225-2.302-.75-.575-.525-.863-1.2-.863-2.025V9.9h-1.942V7.95l1.942-.15.288-3.75 2.23-.075V7.8h2.66v2.1h-2.66v9.45c0 .45.143.75.359 1.05.216.225.575.375 1.007.375.72 0 1.294-.15 1.654-.375zm13.737-4.5h-9.35v.6c0 1.275.36 2.25 1.007 3.075.72.75 1.583 1.125 2.733 1.125 1.439 0 2.59-.675 3.38-2.1l1.943.825c-.36.975-1.007 1.725-1.942 2.4-1.007.675-2.086.975-3.38.975-1.943 0-3.525-.675-4.676-2.1-1.15-1.425-1.726-3.3-1.726-5.55s.576-4.125 1.726-5.475c1.151-1.35 2.662-2.1 4.46-2.1s3.236.6 4.315 1.875c1.079 1.275 1.654 2.85 1.654 4.875.072.6 0 1.2-.144 1.575zM54.59 9.6c-1.08 0-1.942.375-2.59 1.125-.647.75-1.007 1.725-1.007 2.925v.6h6.905v-.675c0-1.2-.288-2.175-.935-2.925-.575-.675-1.367-1.05-2.373-1.05zm18.7 12.825L68.615 15.6h-1.798v6.825h-2.518V.15L66.745 0v13.5h1.941l4.028-5.625 2.877-.15-4.963 6.825 5.467 7.875H73.29zM91.63 11.85V12l5.754 10.5h-1.582l-5.323-9.75H87.1l-1.295 9.75h-1.366l2.66-20.25h1.367l-1.222 9.15h3.092l7.408-9.15h1.583l-7.696 9.6zm13.018 10.875c-1.654 0-3.021-.525-4.028-1.65-1.007-1.125-1.51-2.625-1.51-4.425 0-2.625.647-4.8 1.942-6.525 1.295-1.725 2.949-2.625 5.106-2.625 1.583 0 2.877.6 3.884 1.725 1.007 1.125 1.511 2.625 1.511 4.5 0 2.625-.648 4.8-1.942 6.525-1.295 1.65-2.949 2.475-4.963 2.475zm0-1.2c1.367 0 2.517-.525 3.524-1.575 1.007-1.05 1.583-2.4 1.798-4.05l.288-2.4c0-1.425-.36-2.625-1.151-3.525-.719-.9-1.726-1.35-2.949-1.35-1.366 0-2.589.525-3.596 1.5-1.007.975-1.582 2.325-1.798 3.9l-.287 2.55c0 1.5.359 2.7 1.15 3.6.72.9 1.726 1.35 3.021 1.35zm23.087 1.2c-1.654 0-3.02-.525-4.027-1.65-1.007-1.125-1.511-2.625-1.511-4.425 0-2.625.648-4.8 1.942-6.525 1.295-1.725 2.949-2.625 5.107-2.625 1.582 0 2.877.6 3.884 1.725 1.006 1.125 1.51 2.625 1.51 4.5 0 2.625-.647 4.8-1.942 6.525-1.223 1.65-2.877 2.475-4.963 2.475zm0-1.2c1.367 0 2.518-.525 3.525-1.575 1.006-1.05 1.582-2.4 1.798-4.05l.287-2.4c0-1.425-.359-2.625-1.15-3.525-.792-.9-1.727-1.35-2.949-1.35-1.367 0-2.59.525-3.596 1.5-1.007.975-1.583 2.325-1.799 3.9l-.287 2.55c0 1.5.359 2.7 1.151 3.6.719.9 1.726 1.35 3.02 1.35zM154.563 7.8c.647 1.65 1.007 3.6 1.007 5.775 0 2.775-.576 4.95-1.655 6.675-1.078 1.65-2.517 2.55-4.243 2.55-1.798 0-3.021-.675-3.812-2.1-.863 1.425-2.014 2.1-3.596 2.1-1.439 0-2.589-.45-3.452-1.425-.864-.9-1.367-2.175-1.367-3.675 0-2.25.432-5.475 1.367-9.825h1.366c-.935 4.275-1.366 7.425-1.366 9.375v.45c0 1.125.287 2.1.935 2.775.647.675 1.51 1.05 2.517 1.05 1.438 0 2.445-.75 3.093-2.25-.072-.45-.144-.9-.144-1.35 0-2.475.431-5.85 1.366-10.125h1.367c-.935 4.5-1.367 7.725-1.367 9.75v.975l.072.075v.15c.144.825.432 1.5.935 2.025.504.525 1.223.75 2.086.75 1.295 0 2.373-.675 3.236-2.025.792-1.35 1.295-3.225 1.367-5.475v-1.05c0-1.8-.36-3.525-1.007-5.1l1.295-.075zm15.104 14.925c-1.655 0-2.949-.6-3.884-1.725-1.007-1.125-1.511-2.7-1.511-4.575 0-2.625.648-4.725 1.87-6.45 1.223-1.65 2.877-2.55 4.891-2.55 1.223 0 2.23.3 2.949.975.719.675 1.079 1.5 1.079 2.625 0 .15 0 .375-.072.675h-1.223v-.6c0-.825-.288-1.425-.791-1.875-.503-.45-1.223-.675-2.014-.675-1.294 0-2.445.525-3.38 1.5s-1.511 2.325-1.726 3.9l-.36 2.625c0 1.5.36 2.7 1.151 3.6.791.9 1.726 1.35 3.021 1.35 1.582 0 2.876-.6 3.811-1.8l.792.9c-1.151 1.425-2.662 2.1-4.603 2.1zM185.49 24c-1.511-1.05-3.812-1.575-6.905-1.575h-3.021l.144-1.2L185.49 8.85h-7.912l.144-1.125h9.35l-.144 1.125-9.853 12.375h1.51c3.237 0 5.61.525 7.336 1.65L185.49 24zm-25.821-1.575c-.647 0-1.007-.3-1.007-.9 0-.15 0-.375.072-.75l1.726-13.05h1.223l-1.87 13.5h2.446l-.216 1.2h-2.374zm2.302-19.5c-.288 0-.504-.075-.576-.225-.143-.15-.143-.3-.143-.45v-.225c0-.075 0-.15.072-.3.071-.225.143-.375.287-.525.144-.15.36-.225.719-.225.288 0 .504.075.576.225.072.15.144.3.144.45 0 .075 0 .225-.072.525-.072.225-.144.375-.288.525-.144.15-.36.225-.719.225zm-45.887 19.8c-.647 0-1.007-.3-1.079-.9v-.375c0-.15 0-.225.072-.375l1.87-11.85h-2.661l.144-.975h1.87c.359 0 .575-.075.719-.225.144-.15.216-.375.288-.75l.575-3.525h1.223l-.72 4.5h3.237l-.144.975h-3.236l-1.942 12.3h3.02l-.359 1.2h-2.877z"/></g><defs><clipPath id="clip0"><path fill="#fff" d="M0 0h187v24H0z"/></clipPath></defs></svg>