<svg xmlns="http://www.w3.org/2000/svg" viewBox="0 0 187.1 24"><path d="M10 11.9c.9.2 1.8.8 2.4 1.6.6.8 1 1.9 1 3.3 0 1.8-.5 3.2-1.5 4.2s-2.5 1.5-4.5 1.5H0V2.2h7c1.6 0 2.9.5 3.8 1.4.9 1 1.4 2.2 1.4 3.8 0 1.1-.2 1.9-.6 2.8-.2.8-.8 1.4-1.6 1.7zM6.8 4.5H2.6V11h4.7c.6 0 1.2-.2 1.5-.7.4-.5.6-1 .6-1.7v-2c0-.7-.2-1.1-.7-1.5s-1.1-.6-1.9-.6zm3.8 13.4v-2.4c0-.7-.3-1.3-.9-1.6-.6-.4-1.4-.6-2.2-.6H2.6v7h4.7c2.2-.1 3.3-.9 3.3-2.4zM18 8.8c.9-.9 2.2-1.3 3.7-1.3s2.7.4 3.7 1.2c.9.8 1.3 1.9 1.3 3.3v10.4h-2l-.2-2.8h-.2c-.5 1-1.2 1.7-1.9 2.2-.8.5-1.7.8-2.5.8-1.3 0-2.2-.4-3-1.1-.7-.8-1.1-1.7-1.1-2.9s.4-2.2 1.2-2.9c.8-.8 1.9-1.1 3.2-1.1h4.1V12c0-.8-.2-1.4-.7-1.9-.4-.4-1.1-.7-1.9-.7-.8 0-1.4.2-1.9.8-.5.5-.7 1.1-.7 1.9h-2.4c-.2-1.3.3-2.4 1.3-3.3zm2.2 11.9c.8 0 1.7-.4 2.4-1.2.8-.8 1.3-1.9 1.5-3.1h-3.8c-.6 0-1.2.1-1.5.4-.4.3-.6.7-.6 1.2v1.1c0 .5.2.9.6 1.2.4.2.8.4 1.4.4zM37.5 7.6c.1 0 .4 0 .6.1v2.6c-1-.3-1.9 0-2.6.8-.8.8-1.3 1.8-1.7 3.1v8.6h-2.5V7.9l2-.2.4 3h.1c.8-2.1 2.1-3.1 3.7-3.1zm9.1 12.8v1.9c-.7.3-1.4.5-2.4.5s-1.7-.2-2.3-.8c-.6-.5-.9-1.2-.9-2V9.9h-1.9v-2l1.9-.1.4-3.8h2.2v3.8h2.7v2.1h-2.7v9.5c0 .4.1.8.4 1 .2.2.6.4 1 .4.7 0 1.2-.2 1.6-.4zm13.7-4.5H51v.6c0 1.3.4 2.2 1 3.1.7.8 1.6 1.1 2.7 1.1 1.4 0 2.6-.7 3.4-2.1l1.9.8c-.4 1-1 1.7-1.9 2.4-1 .7-2.1 1-3.4 1-1.9 0-3.5-.7-4.7-2.1-1.2-1.4-1.7-3.3-1.7-5.6s.6-4.1 1.7-5.5c1.2-1.3 2.7-2.1 4.5-2.1 1.8 0 3.2.6 4.3 1.9 1.1 1.3 1.7 2.9 1.7 4.9.1.6 0 1.2-.2 1.6zm-5.7-6.3c-1.1 0-1.9.4-2.6 1.1-.6.8-1 1.7-1 2.9v.6h6.9v-.7c0-1.2-.3-2.2-.9-2.9-.6-.6-1.4-1-2.4-1zm18.7 12.8l-4.7-6.8h-1.8v6.8h-2.5V.2l2.4-.2v13.5h1.9l4-5.6 2.9-.2-5 6.8 5.5 7.9h-2.7zm18.3-10.5v.1l5.8 10.5h-1.6l-5.3-9.8h-3.4l-1.3 9.8h-1.4l2.7-20.2h1.4l-1.2 9.1h3.1l7.4-9.1h1.6l-7.8 9.6zm13 10.8c-1.7 0-3-.5-4-1.6s-1.5-2.6-1.5-4.4c0-2.6.6-4.8 1.9-6.5 1.3-1.7 2.9-2.6 5.1-2.6 1.6 0 2.9.6 3.9 1.7s1.5 2.6 1.5 4.5c0 2.6-.6 4.8-1.9 6.5-1.3 1.6-2.9 2.4-5 2.4zm0-1.2c1.4 0 2.5-.5 3.5-1.6s1.6-2.4 1.8-4.1l.3-2.4c0-1.4-.4-2.6-1.2-3.5-.7-.9-1.7-1.4-2.9-1.4-1.4 0-2.6.5-3.6 1.5s-1.6 2.3-1.8 3.9l-.3 2.6c0 1.5.4 2.7 1.2 3.6.7 1 1.8 1.4 3 1.4zm23.1 1.2c-1.7 0-3-.5-4-1.6s-1.5-2.6-1.5-4.4c0-2.6.6-4.8 1.9-6.5 1.3-1.7 2.9-2.6 5.1-2.6 1.6 0 2.9.6 3.9 1.7s1.5 2.6 1.5 4.5c0 2.6-.6 4.8-1.9 6.5-1.2 1.6-2.9 2.4-5 2.4zm0-1.2c1.4 0 2.5-.5 3.5-1.6s1.6-2.4 1.8-4.1l.3-2.4c0-1.4-.4-2.6-1.1-3.5-.8-.9-1.7-1.4-2.9-1.4-1.4 0-2.6.5-3.6 1.5s-1.6 2.3-1.8 3.9l-.3 2.6c0 1.5.4 2.7 1.2 3.6.6 1 1.6 1.4 2.9 1.4zm26.9-13.7c.6 1.7 1 3.6 1 5.8 0 2.8-.6 4.9-1.7 6.7-1.1 1.6-2.5 2.5-4.2 2.5-1.8 0-3-.7-3.8-2.1-.9 1.4-2 2.1-3.6 2.1-1.4 0-2.6-.4-3.5-1.4-.9-.9-1.4-2.2-1.4-3.7 0-2.3.4-5.5 1.4-9.8h1.4c-.9 4.3-1.4 7.4-1.4 9.4v.5c0 1.1.3 2.1.9 2.8.6.7 1.5 1 2.5 1 1.4 0 2.4-.8 3.1-2.2-.1-.4-.1-.9-.1-1.4 0-2.5.4-5.8 1.4-10.1h1.4c-.9 4.5-1.4 7.7-1.4 9.7v.9l.1.1v.2c.1.8.4 1.5.9 2s1.2.8 2.1.8c1.3 0 2.4-.7 3.2-2 .8-1.4 1.3-3.2 1.4-5.5v-1c0-1.8-.4-3.5-1-5.1l1.3-.2zm15.1 14.9c-1.7 0-2.9-.6-3.9-1.7s-1.5-2.7-1.5-4.6c0-2.6.6-4.7 1.9-6.4 1.2-1.6 2.9-2.6 4.9-2.6 1.2 0 2.2.3 2.9 1 .7.7 1.1 1.5 1.1 2.6 0 .2 0 .4-.1.7h-1.2v-.6c0-.8-.3-1.4-.8-1.9-.5-.4-1.2-.7-2-.7-1.3 0-2.4.5-3.4 1.5-.9 1-1.5 2.3-1.7 3.9l-.4 2.6c0 1.5.4 2.7 1.2 3.6.8.9 1.7 1.4 3 1.4 1.6 0 2.9-.6 3.8-1.8l.8.9c-1.2 1.4-2.7 2.1-4.6 2.1zm15.8 1.3c-1.5-1-3.8-1.6-6.9-1.6h-3l.1-1.2 9.8-12.4h-7.9l.1-1.1h9.4l-.1 1.1-9.9 12.4h1.5c3.2 0 5.6.5 7.3 1.6l-.4 1.2zm-25.8-1.6c-.6 0-1-.3-1-.9 0-.1 0-.4.1-.8l1.7-13.1h1.2l-1.9 13.5h2.4l-.2 1.2h-2.3zM162 2.9c-.3 0-.5-.1-.6-.2-.1-.2-.1-.3-.1-.5V2c0-.1 0-.2.1-.3.1-.2.1-.4.3-.5.1-.2.3-.2.6-.2s.5.1.6.2c.1.1.1.3.1.4 0 .1 0 .2-.1.5-.1.2-.1.4-.3.5s-.3.3-.6.3zm-45.9 19.8c-.6 0-1-.3-1.1-.9v-.4c0-.2 0-.2.1-.4L117 9.1h-2.7l.1-1h1.9c.4 0 .6-.1.7-.2.1-.1.2-.4.3-.7l.6-3.5h1.2l-.7 4.5h3.2l-.1 1h-3.2l-1.9 12.3h3l-.4 1.2h-2.9z" fill="#fff"/></svg>