<svg width="132" height="40" fill="none" xmlns="http://www.w3.org/2000/svg"><path d="M131.3.707v38.591H66.697V.707H131.3zM132 0H66.002v40H132V0z" fill="#000106"/><path d="M76.479 18.334h-.627v-4.997h.627v4.997zm4.801 0h-1.113l-.85-2.67-.661-2.155.014.485c.005.324.015.658.02 1.012.01.353.01.569.01.643v2.685h-.608v-4.997h1.113l.821 2.567c.311 1.075.54 1.83.68 2.268l-.005-.51c-.01-.34-.014-.698-.024-1.061-.005-.368-.005-.59-.005-.673v-2.586h.608v4.992zm1.783-4.684c.267-.24.598-.357 1.006-.357.836 0 1.438.495 1.438 1.398v.167h-.632v-.167c0-.54-.32-.814-.816-.814-.466 0-.763.255-.763.697 0 .598.817.883 1.458 1.227.437.24.792.667.792 1.232 0 .81-.593 1.34-1.472 1.34-.438 0-.807-.128-1.098-.383-.287-.255-.438-.604-.438-1.06v-.157h.632v.152c0 .54.364.869.904.869.51 0 .835-.27.835-.742 0-1.124-2.215-.868-2.25-2.459.006-.387.137-.692.404-.942zm5.952.28h-1.064v4.404h-.631V13.93h-1.06v-.59h2.755v.59zm3.601-.593l-1.268 3.455v1.542h-.627v-1.542l-1.268-3.455h.666l.49 1.413c.272.786.423 1.232.428 1.345.024-.142.17-.589.427-1.345l.481-1.413h.671zm3.188.593H94.74v4.404h-.632V13.93h-1.055v-.59h2.756v.59h-.005zm3.251-.593h.631v3.603c0 .427-.13.77-.398 1.03-.272.26-.622.398-1.05.398-.437 0-.787-.133-1.05-.398-.271-.26-.407-.603-.407-1.03v-3.603h.631v3.603c0 .5.301.83.831.83.51 0 .821-.33.821-.83v-3.603h-.01zm4.353.593h-1.064v4.404h-.631V13.93h-1.06v-.59h2.755v.59zM78.787 25.196v.167c0 .785-.55 1.31-1.472 1.31h-1.487v-5.002h1.423c.91 0 1.424.486 1.424 1.242v.172c0 .57-.287.918-.675 1.016.466.093.787.466.787 1.095zm-1.623-1.34c.593 0 .89-.246.89-.746v-.167c0-.457-.297-.697-.808-.697h-.801v1.61h.719zm.082 2.238c.598 0 .919-.285.919-.756v-.147c0-.51-.306-.761-.919-.761h-.801v1.669h.802v-.005zm5.244.574l-.865-1.958c-.025.005-.311.005-.85.005v1.953h-.623v-4.997h1.36c.92 0 1.459.54 1.459 1.414v.211c0 .619-.268 1.07-.734 1.247l.972 2.125h-.72zm-1.72-4.403v1.86h.738c.554 0 .831-.274.831-.824v-.226c0-.545-.282-.815-.846-.815h-.724v.005zm3.775 4.403h-.646l1.117-4.997h1.089l1.112 4.997h-.646l-.252-1.153h-1.526l-.248 1.153zm.379-1.742h1.268l-.184-.87c-.258-1.153-.409-1.874-.452-2.183-.005.03-.088.495-.229 1.188-.068.353-.14.682-.209.996l-.194.869zm6.613 1.742h-1.113l-.85-2.67-.66-2.155.014.486c.01.324.014.658.024 1.011.01.354.01.57.01.643v2.685h-.608v-4.997h1.113l.821 2.568c.311 1.075.54 1.83.68 2.267l-.004-.51c-.005-.339-.015-.697-.024-1.06-.005-.369-.005-.59-.005-.673v-2.587h.607v4.992h-.005zm1.589 0v-4.997h1.453c.438 0 .783.128 1.05.388s.398.604.398 1.016v2.184c0 .413-.13.747-.398 1.012-.267.26-.617.397-1.05.397h-1.453zm.632-.589h.821c.525 0 .822-.314.822-.814V23.08c0-.5-.297-.815-.822-.815h-.82v3.814zm4.412.589h-.631v-4.997h.631v4.997zm4.796 0h-1.113l-.85-2.67-.661-2.155.015.486c.01.324.014.658.024 1.011.01.354.01.57.01.643v2.685h-.608v-4.997h1.113l.821 2.568c.311 1.075.54 1.83.681 2.267l-.01-.51c-.005-.339-.015-.697-.019-1.06-.01-.369-.01-.59-.01-.673v-2.587h.607v4.992zm3.032-2.11v-.575h1.361v1.242c0 .928-.593 1.482-1.453 1.482-.879 0-1.453-.54-1.453-1.487v-2.096c0-.456.141-.815.413-1.084.272-.27.622-.403 1.045-.403.879 0 1.443.54 1.443 1.487v.157h-.632V23.1c0-.56-.286-.87-.816-.87-.51 0-.831.31-.831.87v2.14c0 .56.297.874.821.874.535 0 .836-.29.836-.87v-.686h-.734zm2.751-1.493c0-.427.131-.77.408-1.03.267-.26.617-.398 1.045-.398.865 0 1.453.57 1.453 1.428v2.214c0 .427-.132.77-.399 1.03-.267.261-.612.398-1.045.398-.437 0-.782-.132-1.049-.397-.272-.26-.408-.604-.408-1.03v-2.215h-.005zm.631 2.214c0 .5.302.83.831.83.511 0 .822-.33.822-.83v-2.214c0-.5-.307-.83-.831-.83-.511 0-.822.33-.822.83v2.214zm5.428 1.389h-1.113l-1.001-4.997h.647l.563 2.867c.005.054.039.182.073.383.039.21.073.417.112.638.039.216.073.427.112.618.039.202.053.3.053.305.024-.226.117-.869.306-1.94l.491-2.87h1.098l.481 2.87.297 1.915.34-1.91.568-2.88h.637l-1.001 4.996h-1.093l-.467-2.739a65.17 65.17 0 01-.17-1.09c-.097-.588-.141-.902-.151-.947 0 .005-.043.324-.141.933-.097.614-.15.982-.17 1.09l-.471 2.758zm7.381-4.997l-1.268 3.456v1.541h-.632v-1.541l-1.268-3.456h.666l.49 1.414c.273.785.423 1.232.428 1.345.024-.142.17-.589.428-1.345l.481-1.414h.675zm-85.9-7.657h-1.56v6.14h.641c1.793 0 3.625-.363 3.625-3.067 0-2.155-.806-3.073-2.706-3.073zm-13.626 6.131H21.27v5.875h1.424c1.919 0 2.852-.967 2.852-2.96 0-1.904-.996-2.915-2.882-2.915zm2.449-3.372c0-1.851-.85-2.793-2.521-2.793h-1.322v5.605h1.176c1.817 0 2.667-.893 2.667-2.813zm21.585 4.663h4.213l-2.163-5.896-2.05 5.896z" fill="#000106"/><path d="M0 0v40h66.002V0H0zm14.602 26.585H9.087l1.253-1.252V14.672l-1.253-1.257h5.515l-1.254 1.252v10.661l1.254 1.257zm7.896 0h-5.49l1.253-1.232v-10.7l-1.254-1.238h5.583c3.907 0 5.647 1.011 5.647 3.274 0 1.811-1.521 2.65-2.794 3.039l-.306.093.31.069c2.139.476 3.222 1.506 3.222 3.072 0 2.474-1.958 3.623-6.17 3.623zm28.62 0l1.269-1.154-1.234-3.342h-4.675l-1.113 3.176 1.905 1.325h-8.814l.797-.943-3.062-4.889H34.73v4.6l1.253 1.232h-5.51l1.254-1.232V14.657l-1.254-1.232h6.045c3.503 0 5.515 1.31 5.515 3.598 0 1.502-1.035 2.67-2.915 3.299l-.102.034 3.265 4.977c.248.383.67.609 1.122.609.564 0 1.074-.358 1.269-.898l3.746-10.426-.442-1.198h3.08l4.617 12.036 1.239 1.129H51.12z" fill="#000106"/></svg>