<svg width="151" height="39" fill="none" xmlns="http://www.w3.org/2000/svg"><path d="M60.548 9.829h14.207v3.19H64.242v4.652h9.304v3.19h-9.304v5.208H75.08v3.19H60.548V9.828zm16.29 5.616h3.66V17.7c.737-1.611 2.1-2.547 4.078-2.547 3.045 0 4.842 2.019 4.842 5.818v8.277h-3.66v-8.07c0-1.933-.736-2.923-2.451-2.923-1.742 0-2.808 1.404-2.808 3.978v7.02h-3.66V15.447zM90.627 32.29c0-1.317.918-2.4 2.452-3.043-1.33-.32-2.215-1.23-2.215-2.313 0-1.197.918-2.079 2.478-2.514-1.242-.936-2.005-2.34-2.005-3.919 0-3.042 2.599-5.322 6.11-5.322 2.188 0 3.991.909 5.024 2.34.533-1.284 1.478-2.08 2.924-2.08v3.538c-.649-.26-1.506-.233-2.154.294.087.381.148.762.148 1.17 0 3.19-2.391 5.263-6.084 5.263-.709 0-1.39-.087-2.006-.294h-.115c-.71 0-1.27.322-1.27.762 0 .528.736.877 1.715.877h3.248c4.369 0 6.732 1.578 6.732 4.473 0 2.983-2.863 4.795-7.71 4.795-4.705.01-7.272-1.453-7.272-4.028zm11.811-.436c0-1.197-1.181-1.725-3.754-1.725H95.91c-1.27.174-2.215.79-2.215 1.845 0 1.11 1.534 1.785 4.314 1.785 2.688-.005 4.43-.735 4.43-1.905zm-2.27-11.32v-.174c0-1.464-1.181-2.547-2.775-2.547-1.566 0-2.715 1.11-2.715 2.574v.147c0 1.464 1.094 2.514 2.715 2.514 1.682 0 2.775-1.023 2.775-2.514zm6.431-5.089h3.66v2.547c.385-1.578 1.418-2.688 3.984-2.688h.297v3.483h-1.445c-2.215 0-2.836.996-2.836 3.39v7.081h-3.66V15.445zm8.661 10.15c0-3.102 2.336-3.804 5.463-4.473 2.572-.496 3.869-.615 3.957-1.377v-.147c0-.816-.736-1.578-2.627-1.578-1.891 0-2.775.936-2.863 2.166v.206h-3.633c.115-3.129 2.599-5.208 6.529-5.208 3.781 0 6.084 1.638 6.084 5.383v8.686h-3.517v-1.878c-.885 1.431-2.479 2.22-4.551 2.22-2.984.006-4.842-1.605-4.842-4zm9.42-2.051v-1.17c-.797.468-2.099.702-3.248.995-1.418.349-2.479.817-2.479 2.047 0 .936.737 1.578 2.006 1.578 1.743 0 3.633-.876 3.721-3.45zm5.82-8.099h3.661v2.221c.709-1.611 2.066-2.514 4.045-2.514 1.566 0 3.132.729 3.841 2.895.621-1.698 2.127-2.895 4.551-2.895 2.715 0 4.402 2.079 4.402 5.616v8.485h-3.66v-8.284c0-1.845-.797-2.72-2.276-2.72-1.593 0-2.478 1.11-2.478 3.129v7.87h-3.66v-8.42c0-1.698-.77-2.574-2.276-2.574-1.357 0-2.478 1.023-2.478 3.13v7.869h-3.661V15.445h-.011zM19.692 0C8.832 0 0 8.746 0 19.5S8.832 39 19.692 39s19.692-8.746 19.692-19.5S30.546 0 19.692 0zm12.184 31.566c-7.886 8.201-16.477 8.207-24.363 0-8.288-7.81-8.282-16.317 0-24.132 7.886-8.201 16.477-8.207 24.363 0 8.283 7.815 8.283 16.316 0 24.132z" fill="#000106"/><path d="M15.542 16.023H8.106a44.084 44.084 0 013.919 6.41 46.183 46.183 0 003.517-6.41z" fill="#000106"/><path d="M27.705 19.663c-6.073 13.514-13.157 14.042-9.486 7.364.742-1.317 1.726-2.482 2.638-3.717a40.034 40.034 0 004.248-7.288h-6.463c-3.88 0-1.357-3.826 2.193-3.826 3.424 0 5.27 1.824 8.315 1.824v-2.918c.088 0-6.804 3.19-7.463-4.283h-.852c-6.595 0-8.31 3.652-4.226 9.203 1.187 1.611 2.407 3.179 3.275 4.942.533 1.083-.28 2.346-1.495 2.346H12.36a39.666 39.666 0 004.249 7.287c4.468 6.074 12.75-7.287 12.75-7.287l-1.654-3.647zM19.824 9.187c.456 0 .83.364.83.822a.825.825 0 01-.83.821.825.825 0 01-.83-.821.829.829 0 01.83-.822z" fill="#000106"/></svg>