<?xml version="1.0" standalone="no"?>
<!DOCTYPE svg PUBLIC "-//W3C//DTD SVG 20010904//EN"
 "http://www.w3.org/TR/2001/REC-SVG-20010904/DTD/svg10.dtd">
<svg version="1.0" xmlns="http://www.w3.org/2000/svg"
 width="260.000000pt" height="260.000000pt" viewBox="0 0 260.000000 260.000000"
 preserveAspectRatio="xMidYMid meet">
<metadata>
Created by potrace 1.11, written by Peter Selinger 2001-2013
</metadata>
<g transform="translate(0.000000,260.000000) scale(0.100000,-0.100000)"
fill="#000000" stroke="none">
<path d="M0 1300 l0 -1300 1300 0 1300 0 0 1300 0 1300 -1300 0 -1300 0 0
-1300z m980 875 c0 -13 -22 -186 -50 -382 -27 -197 -50 -368 -50 -380 0 -23 1
-23 143 -22 l142 0 343 405 343 404 75 0 75 0 -83 -98 c-46 -54 -207 -243
-358 -421 -151 -178 -275 -331 -274 -340 0 -9 118 -220 262 -469 144 -249 262
-454 262 -457 0 -3 -33 -5 -72 -5 l-73 0 -245 428 -246 427 -160 3 -159 2 -59
-422 c-32 -233 -60 -426 -63 -430 -4 -7 -123 -12 -123 -5 0 1 56 403 125 892
69 490 125 891 125 893 0 1 27 2 60 2 57 0 60 -1 60 -25z"/>
</g>
</svg>
