<svg width="362" height="46" fill="none" xmlns="http://www.w3.org/2000/svg"><path opacity=".7" d="M294.04 3.87c7.691 2.403 62.103.357 66.137 1.064 3.296 1.03-1.299 17.704-4.266 20.156-1.111.815-2.216.969-5.151.605-4.401-.877-62.109.14-62.109.14-.729-.506-2.952 1.126-3.314.625-1.453-1.507-94.81-.39-102.895-.313-4.777-.053-1.092-1.006-6.609-.57-12.135.693-38.584-.263-47.78.463-7.358.747-8.828.73-16.169-.013-7.344-.578-45.568-.174-49.99.936-1.106.319-1.84.145-1.835-.186 0 0-27.188-.633-27.184-.964-.364-.335-1.097-.509-1.834-.351-1.474.314-30.151 1.487-30.508.49C-.9 22.788 2.551 9.744 5.527 6.465c3.346-3.44 22.043.575 37.13-1.244l70.187.447 15.081-1.158c1.824 1.18 8.469-1.562 12.489.47 1.828.848 13.587.978 16.168.18 2.212-.639 63.56 1.532 69.83-.551 11.739 1.951 56.966-.362 67.628-.74z" fill="#FFAE60"/><path opacity=".7" d="M251.988 18.142c5.486 2.38 44.1-.008 47.032.687 2.561 1.022.171 17.721-1.694 20.184-.744.82-1.481.978-3.682.622-3.298-.864-44.105.505-44.105.505-.729-.505-2.217 1.134-2.579.633-.719-1.498-66.885.087-72.765.022-3.307-.037-.723-1.002-4.771-.55-8.46.734-27.193-.136-33.818.784-5.154.77-6.256.759-11.393.04-5.139-.555-32.34-.028-35.294 1.264-.738.323-1.471.15-1.468-.182 0 0-19.103-.543-19.469-.713.004-.33-.73-.505-1.466-.347-1.106.319-21.332 1.585-21.689.587-1.067-3.158.547-16.222 2.789-19.51 2.243-3.452 15.797.507 26.477-1.527l49.978.057 10.671-1.207c1.457 1.176 5.898-1.59 8.815.43 1.093.84 9.912.937 11.759.13 1.477-.646 45.187 1.329 49.622-.94 7.696 1.907 39.696-.554 47.05-.969z" fill="#FFAE60"/></svg>