<svg width="192" height="59" fill="none" xmlns="http://www.w3.org/2000/svg"><path opacity=".7" d="M57.468 45.803c-3.157-1.39-13.812 3.574-16.585 4.5-1.519.634-2.781 1.103-3.276 1.079-1.707-.613-12.832-16.706-13.693-19.4-.205-.893.06-1.234 1.297-1.174 1.237.06 19.17-6.673 20.433-7.142.477.376.315-1.4.784-.846.709.741 16.04-3.466 17.294-3.76 5.016-1.17-.24-.188 12.038-2.775 3.506-.714 6.262-1.288 6.765-1.44 1.75-.27.939 1.105 2.713.308 2.014-.61 5.512-1.148 9-1.51 12.21-1.176 8.567-2.767 14.223-1.786 2.457.473 17.131-.408 18.675-1.57.265-.342.751-.141.734.211 0 0 10.127.844 10.357 1.209-.017.352.47.552.726.388.255-.164 3.003-.562 5.98-.594 2.73-.045 5.452.087 5.665.804.085 3.363-2.568 17.198-3.967 20.49-1.408 3.466-6.894-1.042-11.944.835-12.38-.422-19.589-.064-22.327.157l-4.539 1.548c-.938-1.106-2.082 2.02-3.967-.015-.708-.741-4.684-.58-5.221.278-.265.34-5.239.63-10.477 1.26-2.5.41-5.247.807-7.252 1.24-2.005.434-3.276 1.08-3.557 1.773-4.898-1.298-16.065 3.995-19.879 5.932z" fill="#FFAE60"/><path opacity=".7" d="M41.241 32.644c-5.588-2.391-28.546 5.69-31.012 5.393-.98-.224-3.242-4.752-5.238-9.621-1.996-4.87-3.49-9.891-3.421-11.302.051-1.058.563-1.387 2.286-1.127 0 0 28.811-6.03 32.31-6.567.468.553 1.313-1.528 1.526-.81.23.364 3.712.18 8.455-.475 4.982-.466 11.466-1.213 17.942-1.783 11.952-1.013 26.857-1.53 29.34-1.586 2.73-.044.69 1.094 3.685.709 6.732-.735 21.022 1.194 26.004.728 3.984-.338 4.974-.29 8.643.771 2.201.637 25.116 3.69 27.138 2.904.751-.14.99.048.973.4l7.107 1.759c3.429.873 7.098 1.934 6.842 2.098-.017.353.213.718.716.566 1.007-.305 16.5 2.389 16.193 3.611-.904 3.315-9.444 15.805-12.558 18.66-1.562 1.515-4.002.69-7.167-.524s-6.825-2.452-10.801-2.29c-2.448-.65-14.972-3.2-28.026-5.068-6.654-.852-3.429-.873-12.643-.082-.461-.73-1.476-.248-2.474-.12-1.254.293-2.5.41-3.43-.872-.7-.918-6.62-1.558-7.9-.736-.256.164-2.235.068-5.204-.075-4.206-.204-25.723-1.421-28.325 1.104-5.622-1.686-24.92 2.506-30.96 4.335z" fill="#FFAE60"/></svg>