<svg width="65" height="16" fill="none" xmlns="http://www.w3.org/2000/svg"><path opacity=".7" d="M52.438.145c1.37 1.42 11.065-.154 11.799.256.64.61-.007 10.716-.482 12.211-.19.499-.375.596-.926.389-.825-.512-11.068.454-11.068.454-.181-.303-.56.694-.649.392-.176-.904-16.782.279-18.257.259-.83-.011-.178-.603-1.195-.316-2.125.472-6.823.01-8.488.588-1.295.484-1.572.48-2.858.063-1.288-.318-8.114.092-8.86.884-.186.198-.369.095-.367-.105 0 0-4.792-.264-4.883-.365.002-.2-.182-.303-.367-.205-.278.196-5.357 1.03-5.444.428-.258-1.906.184-9.811.755-11.807.573-2.095 3.963.253 6.648-1.013l12.54-.135 2.68-.765c.363.706 1.485-.982 2.211.23.272.504 2.485.533 2.95.038.372-.395 11.334.651 12.453-.736 1.926 1.127 9.962-.469 11.808-.745z" fill="#FFAE60"/></svg>