<svg width="163" height="16" fill="none" xmlns="http://www.w3.org/2000/svg"><path opacity=".7" d="M131.939.741c3.485 1.449 27.987.07 29.849.496 1.626.622.133 10.717-1.047 12.203-.471.495-.938.589-2.335.37-2.095-.529-27.99.23-27.99.23-.464-.306-1.406.683-1.636.38-.458-.908-42.448-.062-46.18-.112-2.098-.027-.46-.607-3.028-.34-5.368.43-17.258-.129-21.461.417-3.27.457-3.97.448-7.23.004-3.262-.343-20.524-.071-22.397.705-.468.194-.934.088-.932-.112 0 0-12.124-.361-12.357-.464.002-.2-.463-.307-.93-.213-.702.19-13.537.922-13.764.318-.682-1.911.324-9.81 1.742-11.793 1.419-2.085 10.026.333 16.8-.88l31.719.12 6.77-.711c.927.713 3.74-.952 5.595.274.695.51 6.292.584 7.463.099.936-.388 28.679.88 31.49-.485 4.887 1.167 25.192-.267 29.859-.506z" fill="#FFAE60"/></svg>