<svg xmlns="http://www.w3.org/2000/svg" viewBox="0 0 163 16"><path d="M131.9.7c3.5 1.4 28 .1 29.8.5 1.6.6.1 10.7-1 12.2-.5.5-.9.6-2.3.4-2.1-.5-28 .2-28 .2-.5-.3-1.4.7-1.6.4-.5-.9-42.4-.1-46.2-.1-2.1 0-.5-.6-3-.3-5.4.4-17.3-.1-21.5.4-3.3.5-4 .4-7.2 0-3.3-.3-20.5-.1-22.4.7-.5.2-.9.1-.9-.1 0 0-12.1-.4-12.4-.5 0-.2-.5-.3-.9-.2-.7.2-13.5.9-13.8.3-.7-1.9.3-9.8 1.7-11.8C3.7.7 12.3 3.2 19 2l31.7.1 6.8-.7c.9.7 3.7-1 5.6.3.7.5 6.3.6 7.5.1.9-.4 28.7.9 31.5-.5 4.9 1.1 25.2-.3 29.8-.6z" opacity=".7" fill="#3675f0"/></svg>