<svg width="132" height="40" viewBox="0 0 132 40" fill="none" xmlns="http://www.w3.org/2000/svg">
<path d="M131.3 0.706835V39.2981H66.6973V0.706835H131.3ZM132 0H66.0024V40H132V0Z" fill="#000106"/>
<path d="M76.479 18.3336H75.8521V13.3367H76.479V18.3336Z" fill="#000106"/>
<path d="M81.2797 18.3336H80.1669L79.3166 15.6633L78.6557 13.5085L78.6703 13.9944C78.6751 14.3184 78.6849 14.6522 78.6897 15.0056C78.6994 15.359 78.6994 15.575 78.6994 15.6486V18.3336H78.092V13.3367H79.2048L80.026 15.9039C80.337 16.9788 80.5654 17.7348 80.7063 18.1716L80.7014 17.6611C80.6917 17.3224 80.6869 16.9641 80.6771 16.6009C80.6723 16.2327 80.6723 16.0118 80.6723 15.9284V13.3416H81.2797V18.3336Z" fill="#000106"/>
<path d="M83.0631 13.6508C83.3303 13.4103 83.6608 13.2925 84.0689 13.2925C84.9047 13.2925 85.5072 13.7882 85.5072 14.6914V14.8583H84.8755V14.6914C84.8755 14.1515 84.5548 13.8766 84.0592 13.8766C83.5927 13.8766 83.2963 14.1318 83.2963 14.5736C83.2963 15.1725 84.1126 15.4572 84.754 15.8008C85.1913 16.0413 85.546 16.4683 85.546 17.0328C85.546 17.8427 84.9532 18.3729 84.0738 18.3729C83.6365 18.3729 83.2672 18.2452 82.9756 17.99C82.689 17.7347 82.5383 17.3862 82.5383 16.9297V16.7727H83.17V16.9248C83.17 17.4648 83.5344 17.7936 84.0738 17.7936C84.584 17.7936 84.9095 17.5237 84.9095 17.0525C84.9095 15.9284 82.6938 16.1836 82.6598 14.5933C82.6647 14.2055 82.7959 13.9011 83.0631 13.6508Z" fill="#000106"/>
<path d="M89.0154 13.9306H87.9513V18.3336H87.3196V13.9306H86.2603V13.3416H89.0154V13.9306Z" fill="#000106"/>
<path d="M92.6161 13.3367L91.3479 16.7923V18.3336H90.7211V16.7923L89.4529 13.3367H90.1186L90.6093 14.7503C90.8814 15.5357 91.0321 15.9824 91.0369 16.0953C91.0612 15.9529 91.207 15.5063 91.4645 14.7503L91.9455 13.3367H92.6161Z" fill="#000106"/>
<path d="M95.8038 13.9306H94.7396V18.3336H94.1079V13.9306H93.0535V13.3416H95.8086V13.9306H95.8038Z" fill="#000106"/>
<path d="M99.0546 13.3367H99.6863V16.9396C99.6863 17.3666 99.5551 17.7102 99.2879 17.9704C99.0158 18.2305 98.6659 18.368 98.2383 18.368C97.8009 18.368 97.4511 18.2354 97.1887 17.9704C96.9166 17.7102 96.7805 17.3666 96.7805 16.9396V13.3367H97.4122V16.9396C97.4122 17.4402 97.7135 17.7691 98.2431 17.7691C98.7534 17.7691 99.0643 17.4402 99.0643 16.9396V13.3367H99.0546Z" fill="#000106"/>
<path d="M103.408 13.9306H102.344V18.3336H101.713V13.9306H100.653V13.3416H103.408V13.9306Z" fill="#000106"/>
<path d="M78.7869 25.1957V25.3626C78.7869 26.148 78.2378 26.6732 77.3146 26.6732H75.8276V21.6714H77.2514C78.1601 21.6714 78.6752 22.1573 78.6752 22.9133V23.0851C78.6752 23.6544 78.3885 24.003 77.9997 24.1011C78.4662 24.1944 78.7869 24.5674 78.7869 25.1957ZM77.1639 23.8557C77.7568 23.8557 78.0532 23.6103 78.0532 23.1096V22.9427C78.0532 22.4862 77.7568 22.2457 77.2465 22.2457H76.4448V23.8557H77.1639ZM77.2465 26.094C77.8442 26.094 78.165 25.8093 78.165 25.3381V25.1908C78.165 24.6803 77.8588 24.43 77.2465 24.43H76.4448V26.0989H77.2465V26.094Z" fill="#000106"/>
<path d="M82.4896 26.6683L81.6247 24.7098C81.6004 24.7147 81.3137 24.7147 80.7743 24.7147V26.6683H80.1523V21.6714H81.5129C82.4313 21.6714 82.9707 22.2113 82.9707 23.0851V23.2961C82.9707 23.9146 82.7034 24.3662 82.2369 24.5429L83.2088 26.6683H82.4896ZM80.7695 22.2653V24.1257H81.5081C82.062 24.1257 82.339 23.8508 82.339 23.301V23.0752C82.339 22.5304 82.0571 22.2604 81.4935 22.2604H80.7695V22.2653Z" fill="#000106"/>
<path d="M84.5449 26.6683H83.8987L85.0163 21.6714H86.1047L87.2175 26.6683H86.5712L86.3185 25.5148H84.7928L84.5449 26.6683ZM84.924 24.9258H86.1922L86.0075 24.0569C85.75 22.9034 85.5994 22.1819 85.5556 21.8726C85.5508 21.9021 85.4682 22.3684 85.3273 23.0605C85.2592 23.4139 85.1863 23.7428 85.1183 24.0569L84.924 24.9258Z" fill="#000106"/>
<path d="M91.5373 26.6683H90.4245L89.5741 23.998L88.9133 21.8432L88.9279 22.3291C88.9376 22.6531 88.9425 22.9869 88.9522 23.3403C88.9619 23.6937 88.9619 23.9097 88.9619 23.9833V26.6683H88.3545V21.6714H89.4672L90.2884 24.2386C90.5994 25.3135 90.8278 26.0695 90.9687 26.5063L90.9639 25.9958C90.959 25.6571 90.9493 25.2988 90.9396 24.9356C90.9347 24.5674 90.9347 24.3466 90.9347 24.2631V21.6763H91.5421V26.6683H91.5373Z" fill="#000106"/>
<path d="M93.1265 26.6683V21.6714H94.5794C95.0167 21.6714 95.3617 21.799 95.6289 22.0592C95.8962 22.3193 96.0274 22.6629 96.0274 23.0752V25.2595C96.0274 25.6719 95.8962 26.0056 95.6289 26.2707C95.3617 26.5309 95.0118 26.6683 94.5794 26.6683H93.1265ZM93.7582 26.0793H94.5794C95.1042 26.0793 95.4006 25.7651 95.4006 25.2645V23.0801C95.4006 22.5795 95.1042 22.2653 94.5794 22.2653H93.7582V26.0793Z" fill="#000106"/>
<path d="M98.1703 26.6683H97.5386V21.6714H98.1703V26.6683Z" fill="#000106"/>
<path d="M102.966 26.6683H101.853L101.003 23.998L100.342 21.8432L100.357 22.3291C100.367 22.6531 100.371 22.9869 100.381 23.3403C100.391 23.6937 100.391 23.9097 100.391 23.9833V26.6683H99.7834V21.6714H100.896L101.717 24.2386C102.028 25.3135 102.257 26.0695 102.398 26.5063L102.388 25.9958C102.383 25.6571 102.373 25.2988 102.369 24.9356C102.359 24.5674 102.359 24.3466 102.359 24.2631V21.6763H102.966V26.6683Z" fill="#000106"/>
<path d="M105.998 24.5576V23.9833H107.359V25.2251C107.359 26.1529 106.766 26.7075 105.906 26.7075C105.027 26.7075 104.453 26.1676 104.453 25.2202V23.1243C104.453 22.6678 104.594 22.3094 104.866 22.0395C105.138 21.7695 105.488 21.637 105.911 21.637C106.79 21.637 107.354 22.1769 107.354 23.1243V23.2813H106.722V23.0997C106.722 22.5401 106.436 22.2309 105.906 22.2309C105.396 22.2309 105.075 22.5401 105.075 23.0997V25.2399C105.075 25.7994 105.372 26.1136 105.896 26.1136C106.431 26.1136 106.732 25.824 106.732 25.2448V24.5576H105.998Z" fill="#000106"/>
<path d="M108.749 23.0654C108.749 22.6383 108.88 22.2947 109.157 22.0346C109.424 21.7744 109.774 21.637 110.202 21.637C111.067 21.637 111.655 22.2064 111.655 23.0654V25.2791C111.655 25.7062 111.523 26.0498 111.256 26.3099C110.989 26.5701 110.644 26.7075 110.211 26.7075C109.774 26.7075 109.429 26.575 109.162 26.3099C108.89 26.0498 108.754 25.7062 108.754 25.2791V23.0654H108.749ZM109.38 25.2791C109.38 25.7798 109.682 26.1087 110.211 26.1087C110.722 26.1087 111.033 25.7798 111.033 25.2791V23.0654C111.033 22.5647 110.726 22.2358 110.202 22.2358C109.691 22.2358 109.38 22.5647 109.38 23.0654V25.2791Z" fill="#000106"/>
<path d="M114.808 26.6683H113.695L112.694 21.6714H113.341L113.904 24.538C113.909 24.592 113.943 24.7196 113.977 24.9209C114.016 25.1319 114.05 25.3381 114.089 25.559C114.128 25.775 114.162 25.986 114.201 26.1775C114.24 26.3787 114.254 26.4769 114.254 26.4818C114.278 26.256 114.371 25.613 114.56 24.5429L115.051 21.6714H116.149L116.63 24.5429L116.927 26.4573L117.267 24.5478L117.835 21.6665H118.472L117.471 26.6634H116.378L115.911 23.9244C115.887 23.7821 115.829 23.4238 115.741 22.8347C115.644 22.2457 115.6 21.9316 115.59 21.8874C115.59 21.8923 115.547 22.2114 115.449 22.82C115.352 23.4336 115.299 23.8017 115.279 23.9097L114.808 26.6683Z" fill="#000106"/>
<path d="M122.189 21.6714L120.921 25.127V26.6683H120.289V25.127L119.021 21.6714H119.687L120.177 23.0851C120.45 23.8704 120.6 24.3171 120.605 24.43C120.629 24.2877 120.775 23.841 121.033 23.0851L121.514 21.6714H122.189Z" fill="#000106"/>
<path d="M36.2886 14.0139H34.7288V20.1545H35.3702C37.1632 20.1545 38.9952 19.7913 38.9952 17.0867C38.9952 14.9318 38.1885 14.0139 36.2886 14.0139Z" fill="#000106"/>
<path d="M22.6634 20.1448H21.2688V26.0204H22.6925C24.6119 26.0204 25.5449 25.0534 25.5449 23.0605C25.5449 21.1559 24.5488 20.1448 22.6634 20.1448Z" fill="#000106"/>
<path d="M25.1124 16.7725C25.1124 14.9219 24.2621 13.9795 22.5905 13.9795H21.2688V19.5851H22.4447C24.2621 19.5851 25.1124 18.6917 25.1124 16.7725Z" fill="#000106"/>
<path d="M46.6968 21.4357H50.9097L48.7474 15.5405L46.6968 21.4357Z" fill="#000106"/>
<path d="M0 0V40H66.0024V0H0ZM14.6019 26.5849H9.08669L10.3404 25.3332V14.6717L9.08669 13.4151H14.6019L13.3482 14.6668V25.3283L14.6019 26.5849ZM22.4981 26.5849H17.0072L18.2608 25.3528V14.6521L17.0072 13.4151H22.5904C26.4972 13.4151 28.2368 14.4263 28.2368 16.6892C28.2368 18.5004 26.7158 19.3398 25.4427 19.7276L25.1366 19.8208L25.4476 19.8896C27.5856 20.3657 28.6692 21.3965 28.6692 22.9623C28.6692 25.4362 26.711 26.5849 22.4981 26.5849ZM51.1187 26.5849L52.387 25.4313L51.1527 22.0886H46.4782L45.3654 25.2645L47.2702 26.5898H38.4557L39.2526 25.6473L36.1913 20.7584H34.7287V25.3577L35.9823 26.5898H30.472L31.7257 25.3577V14.657L30.472 13.425H36.5168C40.0203 13.425 42.032 14.7355 42.032 17.0229C42.032 18.525 40.997 19.6932 39.1165 20.3215L39.0145 20.3559L42.2798 25.3332C42.5277 25.716 42.9504 25.9418 43.4023 25.9418C43.966 25.9418 44.4762 25.5835 44.6706 25.0436L48.417 14.6177L47.9748 13.4201H51.0555L55.6718 25.4559L56.9109 26.5849H51.1187Z" fill="#000106"/>
</svg>
