<svg width="151" height="39" viewBox="0 0 151 39" fill="none" xmlns="http://www.w3.org/2000/svg">
<path d="M60.5484 9.82886H74.7553V13.0181H64.2417V17.6713H73.5462V20.8605H64.2417V26.0689H75.0796V29.2581H60.5484V9.82886Z" fill="#000106"/>
<path d="M76.8383 15.4455H80.4985V17.6986C81.235 16.0877 82.598 15.1516 84.5765 15.1516C87.6212 15.1516 89.4184 17.1707 89.4184 20.9695V29.2473H85.7581V21.1763C85.7581 19.2443 85.0217 18.2538 83.3069 18.2538C81.5647 18.2538 80.4985 19.6579 80.4985 22.2321V29.2528H76.8383V15.4455Z" fill="#000106"/>
<path d="M90.6275 32.2895C90.6275 30.9725 91.5453 29.8895 93.0787 29.2472C91.7487 28.9261 90.8638 28.0173 90.8638 26.9342C90.8638 25.7369 91.7816 24.8553 93.3425 24.4199C92.1004 23.4838 91.3365 22.0796 91.3365 20.5014C91.3365 17.4591 93.936 15.1787 97.4479 15.1787C99.6352 15.1787 101.438 16.0876 102.471 17.5189C103.004 16.2345 103.949 15.4399 105.395 15.4399V18.9775C104.746 18.7163 103.889 18.7435 103.241 19.2714C103.328 19.6523 103.389 20.0333 103.389 20.4415C103.389 23.6307 100.998 25.7043 97.305 25.7043C96.596 25.7043 95.9145 25.6172 95.299 25.4104H95.1836C94.4746 25.4104 93.914 25.7315 93.914 26.1723C93.914 26.7002 94.6505 27.0485 95.6287 27.0485H98.8768C103.246 27.0485 105.609 28.6268 105.609 31.5222C105.609 34.5046 102.746 36.3169 97.8985 36.3169C93.1941 36.3278 90.6275 34.8638 90.6275 32.2895ZM102.438 31.8541C102.438 30.6568 101.257 30.1289 98.6844 30.1289H95.909C94.6395 30.3031 93.6942 30.9181 93.6942 31.9739C93.6942 33.0841 95.2275 33.759 98.0085 33.759C100.696 33.7535 102.438 33.0243 102.438 31.8541ZM100.168 20.534V20.3599C100.168 18.8959 98.9867 17.8128 97.3929 17.8128C95.8266 17.8128 94.678 18.9231 94.678 20.3871V20.534C94.678 21.998 95.7716 23.0484 97.3929 23.0484C99.0747 23.0484 100.168 22.0252 100.168 20.534Z" fill="#000106"/>
<path d="M106.599 15.4455H110.259V17.9925C110.644 16.4142 111.677 15.304 114.243 15.304H114.54V18.7871H113.095C110.88 18.7871 110.259 19.783 110.259 22.1777V29.2582H106.599V15.4455Z" fill="#000106"/>
<path d="M115.26 25.5953C115.26 22.4932 117.596 21.7911 120.723 21.1217C123.295 20.6264 124.592 20.5067 124.68 19.7448V19.5978C124.68 18.7815 123.944 18.0196 122.053 18.0196C120.162 18.0196 119.278 18.9556 119.19 20.1856V20.3924H115.557C115.672 17.2631 118.156 15.1841 122.086 15.1841C125.867 15.1841 128.17 16.8222 128.17 20.5666V29.2526H124.653V27.375C123.768 28.8063 122.174 29.5955 120.102 29.5955C117.118 29.6009 115.26 27.99 115.26 25.5953ZM124.68 23.5436V22.3734C123.883 22.8415 122.581 23.0755 121.432 23.3694C120.014 23.7177 118.953 24.1858 118.953 25.4157C118.953 26.3518 119.69 26.994 120.959 26.994C122.702 26.994 124.592 26.1178 124.68 23.5436Z" fill="#000106"/>
<path d="M130.5 15.4455H134.161V17.666C134.87 16.055 136.227 15.1516 138.206 15.1516C139.772 15.1516 141.338 15.8809 142.047 18.0469C142.668 16.3489 144.174 15.1516 146.598 15.1516C149.313 15.1516 151 17.2306 151 20.7681V29.2528H147.34V20.9695C147.34 19.1245 146.543 18.2483 145.064 18.2483C143.471 18.2483 142.586 19.3586 142.586 21.3777V29.2473H138.926V20.828C138.926 19.13 138.156 18.2538 136.65 18.2538C135.293 18.2538 134.172 19.2769 134.172 21.3831V29.2528H130.511V15.4455H130.5Z" fill="#000106"/>
<path d="M19.6918 0C8.83192 0 0 8.74588 0 19.5C0 30.2541 8.83192 39 19.6918 39C30.5517 39 39.3837 30.2541 39.3837 19.5C39.3837 8.74588 30.5462 0 19.6918 0ZM31.8763 31.5657C23.9896 39.7674 15.3995 39.7728 7.5129 31.5657C-0.774923 23.7559 -0.769427 15.2495 7.5129 7.43427C15.3995 -0.767373 23.9896 -0.772816 31.8763 7.43427C40.1586 15.2495 40.1586 23.7505 31.8763 31.5657Z" fill="#000106"/>
<path d="M15.5424 16.0225H8.10646C9.61234 18.0688 10.9039 20.1968 12.025 22.4336C13.3825 20.3655 14.5422 18.243 15.5424 16.0225Z" fill="#000106"/>
<path d="M27.7049 19.6633C21.6319 33.1767 14.5477 33.7046 18.2189 27.0268C18.9609 25.7098 19.9446 24.5451 20.857 23.3097C22.5497 21.0021 23.9512 18.5857 25.1053 16.0224H18.6421C14.762 16.0224 17.2846 12.1964 20.835 12.1964C24.2589 12.1964 26.1055 14.0196 29.1503 14.0196V11.1025C29.2382 11.1025 22.3463 14.2917 21.6868 6.81934H20.835C14.2399 6.81934 12.5252 10.4712 16.6086 16.0224C17.7957 17.6333 19.0158 19.2007 19.8842 20.964C20.4173 22.0471 19.6039 23.3097 18.3893 23.3097H12.3603C13.5144 25.8785 14.9159 28.2949 16.6086 30.597C21.0768 36.6707 29.3591 23.3097 29.3591 23.3097L27.7049 19.6633ZM19.8237 9.18677C20.2799 9.18677 20.6536 9.5514 20.6536 10.0086C20.6536 10.4603 20.2854 10.8304 19.8237 10.8304C19.3676 10.8304 18.9938 10.4657 18.9938 10.0086C18.9993 9.5514 19.3676 9.18677 19.8237 9.18677Z" fill="#000106"/>
</svg>
