<svg width="187" height="24" viewBox="0 0 187 24" fill="none" xmlns="http://www.w3.org/2000/svg">
<g clip-path="url(#clip0)">
<path d="M9.99731 11.925C10.9323 12.15 11.7954 12.675 12.4427 13.5C13.09 14.325 13.4496 15.45 13.4496 16.8C13.4496 18.6 12.9462 19.95 11.9392 21C10.9323 21.975 9.42192 22.5 7.40808 22.5H0V2.25H7.04846C8.63077 2.25 9.92538 2.7 10.8604 3.675C11.7954 4.65 12.2988 5.85 12.2988 7.425C12.2988 8.475 12.0831 9.375 11.7235 10.2C11.3638 11.025 10.7885 11.55 10.0692 11.85L9.99731 11.925ZM6.83269 4.5H2.58923V11.025H7.26423C7.91154 11.025 8.415 10.8 8.77462 10.35C9.13423 9.9 9.35 9.375 9.35 8.7V6.6C9.35 5.925 9.13423 5.475 8.63077 5.1C8.12731 4.725 7.62385 4.5 6.83269 4.5ZM10.5727 17.85V15.45C10.5727 14.775 10.285 14.175 9.70962 13.8C9.13423 13.35 8.34308 13.2 7.48 13.2H2.58923V20.175H7.33615C9.49385 20.175 10.5727 19.425 10.5727 17.85Z" fill="black"/>
<path d="M17.9808 8.775C18.9158 7.875 20.1385 7.5 21.7208 7.5C23.3031 7.5 24.4539 7.875 25.3889 8.7C26.252 9.525 26.6835 10.65 26.6835 12V22.425H24.6696L24.4539 19.65H24.2381C23.7346 20.625 23.0873 21.375 22.2962 21.9C21.505 22.425 20.642 22.725 19.7789 22.725C18.4843 22.725 17.5493 22.35 16.7581 21.6C16.0389 20.85 15.6793 19.875 15.6793 18.675C15.6793 17.475 16.1108 16.5 16.902 15.75C17.6931 15 18.772 14.625 20.1385 14.625H24.2381V12C24.2381 11.175 24.0223 10.575 23.5189 10.125C23.0873 9.675 22.44 9.45 21.6489 9.45C20.8577 9.45 20.2104 9.675 19.707 10.2C19.2035 10.725 18.9877 11.325 18.9877 12.15H16.5423C16.5423 10.8 17.0458 9.675 17.9808 8.775ZM20.2104 20.7C21.0016 20.7 21.8646 20.325 22.5839 19.5C23.375 18.675 23.8785 17.625 24.0943 16.35H20.2823C19.635 16.35 19.1316 16.5 18.772 16.8C18.4123 17.1 18.1966 17.475 18.1966 18V19.125C18.1966 19.65 18.4123 20.025 18.772 20.325C19.2035 20.55 19.635 20.7 20.2104 20.7Z" fill="black"/>
<path d="M37.5438 7.57495C37.6877 7.57495 37.9035 7.57495 38.1192 7.64995V10.2C37.1123 9.89995 36.2492 10.2 35.53 10.95C34.7388 11.7 34.2354 12.75 33.8758 14.025V22.575H31.3585V7.94995L33.3723 7.79995L33.7319 10.8H33.8038C34.595 8.62495 35.8896 7.57495 37.5438 7.57495Z" fill="black"/>
<path d="M46.6062 20.4V22.275C45.8869 22.575 45.1677 22.725 44.2327 22.725C43.2977 22.725 42.5065 22.5 41.9312 21.975C41.3558 21.45 41.0681 20.775 41.0681 19.95V9.89998H39.1262V7.94998L41.0681 7.79998L41.3558 4.04998L43.5854 3.97498V7.79998H46.2465V9.89998H43.5854V19.35C43.5854 19.8 43.7292 20.1 43.945 20.4C44.1608 20.625 44.5204 20.775 44.9519 20.775C45.6712 20.775 46.2465 20.625 46.6062 20.4Z" fill="black"/>
<path d="M60.3434 15.9H50.9934V16.5C50.9934 17.775 51.353 18.75 52.0004 19.575C52.7196 20.325 53.5827 20.7 54.7334 20.7C56.1719 20.7 57.3227 20.0249 58.1138 18.5999L60.0557 19.4249C59.6961 20.3999 59.0488 21.15 58.1138 21.825C57.1069 22.5 56.028 22.7999 54.7334 22.7999C52.7915 22.7999 51.2092 22.125 50.0584 20.7C48.9077 19.275 48.3323 17.4 48.3323 15.15C48.3323 12.9 48.9077 11.025 50.0584 9.67495C51.2092 8.32495 52.7196 7.57495 54.5177 7.57495C56.3157 7.57495 57.7542 8.17495 58.833 9.44995C59.9119 10.725 60.4873 12.3 60.4873 14.325C60.5592 14.925 60.4873 15.525 60.3434 15.9ZM54.5896 9.59995C53.5107 9.59995 52.6477 9.97495 52.0004 10.725C51.353 11.475 50.9934 12.45 50.9934 13.65V14.25H57.898C57.898 14.1 57.898 13.875 57.898 13.575C57.898 12.375 57.6104 11.4 56.963 10.65C56.3877 9.97495 55.5965 9.59995 54.5896 9.59995Z" fill="black"/>
<path d="M73.2896 22.425L68.6146 15.6H66.8165V22.425H64.2992V0.15L66.7446 0V13.5H68.6865L72.7142 7.875L75.5911 7.725L70.6284 14.55L76.0946 22.425H73.2896Z" fill="black"/>
<path d="M91.63 11.85V12L97.3838 22.5H95.8015L90.4792 12.75H87.0988L85.8042 22.5H84.4377L87.0988 2.25H88.4654L87.2427 11.4H90.3354L97.7434 2.25H99.3258L91.63 11.85Z" fill="black"/>
<path d="M104.648 22.725C102.994 22.725 101.627 22.2 100.62 21.075C99.6134 19.95 99.11 18.45 99.11 16.65C99.11 14.025 99.7573 11.85 101.052 10.125C102.347 8.4 104.001 7.5 106.158 7.5C107.741 7.5 109.035 8.1 110.042 9.225C111.049 10.35 111.553 11.85 111.553 13.725C111.553 16.35 110.905 18.525 109.611 20.25C108.316 21.9 106.662 22.725 104.648 22.725ZM104.648 21.525C106.015 21.525 107.165 21 108.172 19.95C109.179 18.9 109.755 17.55 109.97 15.9L110.258 13.5C110.258 12.075 109.898 10.875 109.107 9.975C108.388 9.075 107.381 8.625 106.158 8.625C104.792 8.625 103.569 9.15 102.562 10.125C101.555 11.1 100.98 12.45 100.764 14.025L100.477 16.575C100.477 18.075 100.836 19.275 101.627 20.175C102.347 21.075 103.353 21.525 104.648 21.525Z" fill="black"/>
<path d="M127.735 22.725C126.081 22.725 124.715 22.2 123.708 21.075C122.701 19.95 122.197 18.45 122.197 16.65C122.197 14.025 122.845 11.85 124.139 10.125C125.434 8.4 127.088 7.5 129.246 7.5C130.828 7.5 132.123 8.1 133.13 9.225C134.136 10.35 134.64 11.85 134.64 13.725C134.64 16.35 133.993 18.525 132.698 20.25C131.475 21.9 129.821 22.725 127.735 22.725ZM127.735 21.525C129.102 21.525 130.253 21 131.26 19.95C132.266 18.9 132.842 17.55 133.058 15.9L133.345 13.5C133.345 12.075 132.986 10.875 132.195 9.975C131.403 9.075 130.468 8.625 129.246 8.625C127.879 8.625 126.656 9.15 125.65 10.125C124.643 11.1 124.067 12.45 123.851 14.025L123.564 16.575C123.564 18.075 123.923 19.275 124.715 20.175C125.434 21.075 126.441 21.525 127.735 21.525Z" fill="black"/>
<path d="M154.563 7.80005C155.21 9.45005 155.57 11.4 155.57 13.575C155.57 16.35 154.994 18.525 153.915 20.25C152.837 21.9 151.398 22.8 149.672 22.8C147.874 22.8 146.651 22.125 145.86 20.7C144.997 22.125 143.846 22.8 142.264 22.8C140.825 22.8 139.675 22.35 138.812 21.375C137.948 20.475 137.445 19.2 137.445 17.7C137.445 15.45 137.877 12.225 138.812 7.87505H140.178C139.243 12.15 138.812 15.3 138.812 17.25V17.7C138.812 18.825 139.099 19.8 139.747 20.475C140.394 21.15 141.257 21.525 142.264 21.525C143.702 21.525 144.709 20.775 145.357 19.275C145.285 18.825 145.213 18.375 145.213 17.925C145.213 15.45 145.644 12.075 146.579 7.80005H147.946C147.011 12.3 146.579 15.525 146.579 17.55V18C146.579 18.225 146.579 18.375 146.579 18.525L146.651 18.6V18.675V18.75C146.795 19.575 147.083 20.25 147.586 20.775C148.09 21.3 148.809 21.525 149.672 21.525C150.967 21.525 152.045 20.85 152.908 19.5C153.7 18.15 154.203 16.275 154.275 14.025V12.975C154.275 11.175 153.915 9.45005 153.268 7.87505L154.563 7.80005Z" fill="black"/>
<path d="M169.667 22.725C168.012 22.725 166.718 22.125 165.783 21C164.776 19.875 164.272 18.3 164.272 16.425C164.272 13.8 164.92 11.7 166.142 9.97505C167.365 8.32505 169.019 7.42505 171.033 7.42505C172.256 7.42505 173.263 7.72505 173.982 8.40005C174.701 9.07505 175.061 9.90005 175.061 11.025C175.061 11.175 175.061 11.4 174.989 11.7H173.766C173.766 11.55 173.766 11.4 173.766 11.1C173.766 10.275 173.478 9.67505 172.975 9.22505C172.472 8.77505 171.752 8.55005 170.961 8.55005C169.667 8.55005 168.516 9.07505 167.581 10.05C166.646 11.025 166.07 12.375 165.855 13.95L165.495 16.575C165.495 18.075 165.855 19.275 166.646 20.175C167.437 21.075 168.372 21.525 169.667 21.525C171.249 21.525 172.543 20.925 173.478 19.725L174.27 20.625C173.119 22.05 171.608 22.725 169.667 22.725Z" fill="black"/>
<path d="M185.49 24C183.979 22.95 181.678 22.425 178.585 22.425H175.564L175.708 21.225L185.49 8.84998H177.578L177.722 7.72498H187.072L186.928 8.84998L177.075 21.225H178.585C181.822 21.225 184.195 21.75 185.921 22.875L185.49 24Z" fill="black"/>
<path d="M159.669 22.425C159.022 22.425 158.662 22.125 158.662 21.525C158.662 21.375 158.662 21.15 158.734 20.775L160.46 7.72498H161.683L159.813 21.225H162.259L162.043 22.425H159.669ZM161.971 2.92498C161.683 2.92498 161.467 2.84998 161.395 2.69998C161.252 2.54998 161.252 2.39998 161.252 2.24998C161.252 2.17498 161.252 2.09998 161.252 2.02498C161.252 1.94998 161.252 1.87498 161.324 1.72498C161.395 1.49998 161.467 1.34998 161.611 1.19998C161.755 1.04998 161.971 0.974976 162.33 0.974976C162.618 0.974976 162.834 1.04998 162.906 1.19998C162.978 1.34998 163.05 1.49998 163.05 1.64998C163.05 1.72498 163.05 1.87498 162.978 2.17498C162.906 2.39998 162.834 2.54998 162.69 2.69998C162.546 2.84998 162.33 2.92498 161.971 2.92498Z" fill="black"/>
<path d="M116.084 22.725C115.437 22.725 115.077 22.425 115.005 21.825C115.005 21.75 115.005 21.6 115.005 21.45C115.005 21.3 115.005 21.225 115.077 21.075L116.947 9.225H114.286L114.43 8.25H116.3C116.659 8.25 116.875 8.175 117.019 8.025C117.163 7.875 117.235 7.65 117.307 7.275L117.882 3.75H119.105L118.385 8.25H121.622L121.478 9.225H118.242L116.3 21.525H119.32L118.961 22.725H116.084Z" fill="black"/>
</g>
<defs>
<clipPath id="clip0">
<rect width="187" height="24" fill="white"/>
</clipPath>
</defs>
</svg>
