<?xml version="1.0" encoding="utf-8"?>
<!-- Generator: Adobe Illustrator 24.2.3, SVG Export Plug-In . SVG Version: 6.00 Build 0)  -->
<svg version="1.1" id="Layer_1" xmlns="http://www.w3.org/2000/svg" xmlns:xlink="http://www.w3.org/1999/xlink" x="0px" y="0px"
	 viewBox="0 0 187.1 24" style="enable-background:new 0 0 187.1 24;" xml:space="preserve">
<style type="text/css">
	.st0{fill:#FFFFFF;}
</style>
<g>
	<path class="st0" d="M10,11.9c0.9,0.2,1.8,0.8,2.4,1.6c0.6,0.8,1,1.9,1,3.3c0,1.8-0.5,3.2-1.5,4.2c-1,1-2.5,1.5-4.5,1.5H0V2.2h7
		c1.6,0,2.9,0.5,3.8,1.4c0.9,1,1.4,2.2,1.4,3.8c0,1.1-0.2,1.9-0.6,2.8C11.4,11,10.8,11.6,10,11.9L10,11.9z M6.8,4.5H2.6V11h4.7
		c0.6,0,1.2-0.2,1.5-0.7c0.4-0.5,0.6-1,0.6-1.7V6.6c0-0.7-0.2-1.1-0.7-1.5S7.6,4.5,6.8,4.5z M10.6,17.9v-2.4c0-0.7-0.3-1.3-0.9-1.6
		c-0.6-0.4-1.4-0.6-2.2-0.6H2.6v7h4.7C9.5,20.2,10.6,19.4,10.6,17.9z"/>
	<path class="st0" d="M18,8.8c0.9-0.9,2.2-1.3,3.7-1.3s2.7,0.4,3.7,1.2c0.9,0.8,1.3,1.9,1.3,3.3v10.4h-2l-0.2-2.8h-0.2
		c-0.5,1-1.2,1.7-1.9,2.2c-0.8,0.5-1.7,0.8-2.5,0.8c-1.3,0-2.2-0.4-3-1.1c-0.7-0.8-1.1-1.7-1.1-2.9c0-1.2,0.4-2.2,1.2-2.9
		c0.8-0.8,1.9-1.1,3.2-1.1h4.1V12c0-0.8-0.2-1.4-0.7-1.9c-0.4-0.4-1.1-0.7-1.9-0.7c-0.8,0-1.4,0.2-1.9,0.8c-0.5,0.5-0.7,1.1-0.7,1.9
		h-2.4C16.5,10.8,17,9.7,18,8.8z M20.2,20.7c0.8,0,1.7-0.4,2.4-1.2c0.8-0.8,1.3-1.9,1.5-3.1h-3.8c-0.6,0-1.2,0.1-1.5,0.4
		c-0.4,0.3-0.6,0.7-0.6,1.2v1.1c0,0.5,0.2,0.9,0.6,1.2C19.2,20.5,19.6,20.7,20.2,20.7z"/>
	<path class="st0" d="M37.5,7.6c0.1,0,0.4,0,0.6,0.1v2.6c-1-0.3-1.9,0-2.6,0.8c-0.8,0.8-1.3,1.8-1.7,3.1v8.6h-2.5V7.9l2-0.2l0.4,3
		h0.1C34.6,8.6,35.9,7.6,37.5,7.6z"/>
	<path class="st0" d="M46.6,20.4v1.9c-0.7,0.3-1.4,0.5-2.4,0.5s-1.7-0.2-2.3-0.8c-0.6-0.5-0.9-1.2-0.9-2V9.9h-1.9V7.9l1.9-0.1
		L41.4,4L43.6,4v3.8h2.7v2.1h-2.7v9.5c0,0.4,0.1,0.8,0.4,1c0.2,0.2,0.6,0.4,1,0.4C45.7,20.8,46.2,20.6,46.6,20.4z"/>
	<path class="st0" d="M60.3,15.9H51v0.6c0,1.3,0.4,2.2,1,3.1c0.7,0.8,1.6,1.1,2.7,1.1c1.4,0,2.6-0.7,3.4-2.1l1.9,0.8
		c-0.4,1-1,1.7-1.9,2.4c-1,0.7-2.1,1-3.4,1c-1.9,0-3.5-0.7-4.7-2.1c-1.2-1.4-1.7-3.3-1.7-5.6s0.6-4.1,1.7-5.5
		c1.2-1.3,2.7-2.1,4.5-2.1c1.8,0,3.2,0.6,4.3,1.9c1.1,1.3,1.7,2.9,1.7,4.9C60.6,14.9,60.5,15.5,60.3,15.9z M54.6,9.6
		c-1.1,0-1.9,0.4-2.6,1.1c-0.6,0.8-1,1.7-1,2.9v0.6h6.9c0-0.1,0-0.4,0-0.7c0-1.2-0.3-2.2-0.9-2.9C56.4,10,55.6,9.6,54.6,9.6z"/>
	<path class="st0" d="M73.3,22.4l-4.7-6.8h-1.8v6.8h-2.5V0.2L66.7,0v13.5h1.9l4-5.6l2.9-0.2l-5,6.8l5.5,7.9H73.3z"/>
	<path class="st0" d="M91.6,11.9V12l5.8,10.5h-1.6l-5.3-9.8h-3.4l-1.3,9.8h-1.4l2.7-20.2h1.4l-1.2,9.1h3.1l7.4-9.1h1.6L91.6,11.9z"
		/>
	<path class="st0" d="M104.6,22.7c-1.7,0-3-0.5-4-1.6c-1-1.1-1.5-2.6-1.5-4.4c0-2.6,0.6-4.8,1.9-6.5c1.3-1.7,2.9-2.6,5.1-2.6
		c1.6,0,2.9,0.6,3.9,1.7c1,1.1,1.5,2.6,1.5,4.5c0,2.6-0.6,4.8-1.9,6.5C108.3,21.9,106.7,22.7,104.6,22.7z M104.6,21.5
		c1.4,0,2.5-0.5,3.5-1.6c1-1.1,1.6-2.4,1.8-4.1l0.3-2.4c0-1.4-0.4-2.6-1.2-3.5c-0.7-0.9-1.7-1.4-2.9-1.4c-1.4,0-2.6,0.5-3.6,1.5
		c-1,1-1.6,2.3-1.8,3.9l-0.3,2.6c0,1.5,0.4,2.7,1.2,3.6C102.3,21.1,103.4,21.5,104.6,21.5z"/>
	<path class="st0" d="M127.7,22.7c-1.7,0-3-0.5-4-1.6c-1-1.1-1.5-2.6-1.5-4.4c0-2.6,0.6-4.8,1.9-6.5c1.3-1.7,2.9-2.6,5.1-2.6
		c1.6,0,2.9,0.6,3.9,1.7c1,1.1,1.5,2.6,1.5,4.5c0,2.6-0.6,4.8-1.9,6.5C131.5,21.9,129.8,22.7,127.7,22.7z M127.7,21.5
		c1.4,0,2.5-0.5,3.5-1.6c1-1.1,1.6-2.4,1.8-4.1l0.3-2.4c0-1.4-0.4-2.6-1.1-3.5c-0.8-0.9-1.7-1.4-2.9-1.4c-1.4,0-2.6,0.5-3.6,1.5
		c-1,1-1.6,2.3-1.8,3.9l-0.3,2.6c0,1.5,0.4,2.7,1.2,3.6C125.4,21.1,126.4,21.5,127.7,21.5z"/>
	<path class="st0" d="M154.6,7.8c0.6,1.7,1,3.6,1,5.8c0,2.8-0.6,4.9-1.7,6.7c-1.1,1.6-2.5,2.5-4.2,2.5c-1.8,0-3-0.7-3.8-2.1
		c-0.9,1.4-2,2.1-3.6,2.1c-1.4,0-2.6-0.4-3.5-1.4c-0.9-0.9-1.4-2.2-1.4-3.7c0-2.3,0.4-5.5,1.4-9.8h1.4c-0.9,4.3-1.4,7.4-1.4,9.4v0.5
		c0,1.1,0.3,2.1,0.9,2.8c0.6,0.7,1.5,1,2.5,1c1.4,0,2.4-0.8,3.1-2.2c-0.1-0.4-0.1-0.9-0.1-1.4c0-2.5,0.4-5.8,1.4-10.1h1.4
		c-0.9,4.5-1.4,7.7-1.4,9.7V18c0,0.2,0,0.4,0,0.5l0.1,0.1v0.1v0.1c0.1,0.8,0.4,1.5,0.9,2c0.5,0.5,1.2,0.8,2.1,0.8
		c1.3,0,2.4-0.7,3.2-2c0.8-1.4,1.3-3.2,1.4-5.5v-1c0-1.8-0.4-3.5-1-5.1L154.6,7.8z"/>
	<path class="st0" d="M169.7,22.7c-1.7,0-2.9-0.6-3.9-1.7c-1-1.1-1.5-2.7-1.5-4.6c0-2.6,0.6-4.7,1.9-6.4c1.2-1.6,2.9-2.6,4.9-2.6
		c1.2,0,2.2,0.3,2.9,1c0.7,0.7,1.1,1.5,1.1,2.6c0,0.2,0,0.4-0.1,0.7h-1.2c0-0.1,0-0.3,0-0.6c0-0.8-0.3-1.4-0.8-1.9
		c-0.5-0.4-1.2-0.7-2-0.7c-1.3,0-2.4,0.5-3.4,1.5c-0.9,1-1.5,2.3-1.7,3.9l-0.4,2.6c0,1.5,0.4,2.7,1.2,3.6c0.8,0.9,1.7,1.4,3,1.4
		c1.6,0,2.9-0.6,3.8-1.8l0.8,0.9C173.1,22,171.6,22.7,169.7,22.7z"/>
	<path class="st0" d="M185.5,24c-1.5-1-3.8-1.6-6.9-1.6h-3l0.1-1.2l9.8-12.4h-7.9l0.1-1.1h9.4l-0.1,1.1l-9.9,12.4h1.5
		c3.2,0,5.6,0.5,7.3,1.6L185.5,24z"/>
	<path class="st0" d="M159.7,22.4c-0.6,0-1-0.3-1-0.9c0-0.1,0-0.4,0.1-0.8l1.7-13.1h1.2l-1.9,13.5h2.4l-0.2,1.2H159.7z M162,2.9
		c-0.3,0-0.5-0.1-0.6-0.2c-0.1-0.2-0.1-0.3-0.1-0.5c0-0.1,0-0.1,0-0.2s0-0.2,0.1-0.3c0.1-0.2,0.1-0.4,0.3-0.5C161.8,1,162,1,162.3,1
		c0.3,0,0.5,0.1,0.6,0.2c0.1,0.1,0.1,0.3,0.1,0.4c0,0.1,0,0.2-0.1,0.5c-0.1,0.2-0.1,0.4-0.3,0.5S162.3,2.9,162,2.9z"/>
	<path class="st0" d="M116.1,22.7c-0.6,0-1-0.3-1.1-0.9c0-0.1,0-0.2,0-0.4c0-0.2,0-0.2,0.1-0.4l1.9-11.9h-2.7l0.1-1h1.9
		c0.4,0,0.6-0.1,0.7-0.2c0.1-0.1,0.2-0.4,0.3-0.7l0.6-3.5h1.2l-0.7,4.5h3.2l-0.1,1h-3.2l-1.9,12.3h3l-0.4,1.2H116.1z"/>
</g>
</svg>
