<?xml version="1.0" encoding="utf-8"?>
<!-- Generator: Adobe Illustrator 24.2.3, SVG Export Plug-In . SVG Version: 6.00 Build 0)  -->
<svg version="1.1" id="Layer_1" xmlns="http://www.w3.org/2000/svg" xmlns:xlink="http://www.w3.org/1999/xlink" x="0px" y="0px"
	 viewBox="0 0 16 16" style="enable-background:new 0 0 16 16;" xml:space="preserve">
<style type="text/css">
	.st0{fill-rule:evenodd;clip-rule:evenodd;}
</style>
<path class="st0" d="M16,16h-3.1v-5.6c0-1.5-0.7-2.4-1.8-2.4c-1.3,0-2,0.9-2,2.4V16H6V5.6h3.1v1.2c0,0,1-1.8,3.1-1.8
	C14.4,5,16,6.4,16,9.2C16,12.1,16,16,16,16z M1.5,3C0.7,3,0,2.3,0,1.5C0,0.7,0.7,0,1.5,0C2.3,0,3,0.7,3,1.5C3,2.3,2.3,3,1.5,3z
	 M0,16h3V6H0V16z"/>
</svg>
