<svg width="163" height="16" viewBox="0 0 163 16" fill="none" xmlns="http://www.w3.org/2000/svg">
<path opacity="0.7" d="M131.939 0.741481C135.424 2.18961 159.926 0.811606 161.788 1.23683C163.414 1.85922 161.921 11.9538 160.741 13.4403C160.27 13.9348 159.803 14.0287 158.406 13.81C156.311 13.2815 130.416 14.0402 130.416 14.0402C129.952 13.7337 129.01 14.7226 128.78 14.4191C128.322 13.5118 86.3321 14.3578 82.6009 14.3084C80.5021 14.2806 82.1401 13.7015 79.5721 13.9679C74.2038 14.3975 62.3142 13.8395 58.111 14.3847C54.8415 14.8422 54.1419 14.8329 50.8807 14.3892C47.6187 14.0455 30.3571 14.3177 28.484 15.094C28.0158 15.2881 27.5503 15.1818 27.5522 14.9816C27.5522 14.9816 15.4275 14.6208 15.1952 14.5175C15.1971 14.3173 14.7316 14.211 14.2643 14.3049C13.5628 14.4959 0.728333 15.2273 0.500703 14.6234C-0.181229 12.7117 0.825029 4.81377 2.24284 2.8297C3.66159 0.745496 12.2687 3.16272 19.0437 1.95058L50.7619 2.0701L57.5322 1.35861C58.4585 2.07187 61.2728 0.40671 63.1272 1.63297C63.8222 2.14288 69.419 2.21698 70.5897 1.73177C71.5262 1.3436 99.2689 2.6122 102.08 1.24743C106.967 2.4137 127.272 0.980117 131.939 0.741481Z" fill="#FFAE60"/>
</svg>
