<svg width="362" height="46" viewBox="0 0 362 46" fill="none" xmlns="http://www.w3.org/2000/svg">
<path opacity="0.7" d="M294.04 3.86911C301.731 6.27279 356.143 4.22656 360.177 4.9337C363.473 5.96385 358.878 22.6385 355.911 25.0896C354.8 25.9053 353.695 26.0586 350.76 25.6949C346.359 24.8181 288.651 25.8342 288.651 25.8342C287.922 25.3293 285.699 26.9606 285.337 26.4598C283.884 24.9533 190.527 26.0709 182.442 26.1468C177.665 26.0938 181.35 25.1411 175.833 25.5767C163.698 26.2702 137.249 25.3145 128.053 26.0405C120.695 26.7869 119.225 26.7706 111.884 26.0268C104.54 25.4486 66.3162 25.8527 61.894 26.9629C60.7879 27.2818 60.0549 27.1081 60.0586 26.7769C60.0586 26.7769 32.8709 26.1442 32.8746 25.8131C32.5108 25.4778 31.7777 25.3041 31.041 25.4616C29.5675 25.7764 0.88987 26.9488 0.533447 25.9513C-0.901487 22.7889 2.55061 9.74483 5.52694 6.46584C8.87255 3.02534 27.5703 7.04147 42.6578 5.22157L112.844 5.66866L127.925 4.51108C129.749 5.69051 136.394 2.94901 140.414 4.98078C142.242 5.82905 154.001 5.95944 156.582 5.16006C158.794 4.52219 220.142 6.69287 226.412 4.6096C238.151 6.56137 283.378 4.24769 294.04 3.86911Z" fill="#FFAE60"/>
<path opacity="0.7" d="M251.988 18.142C257.474 20.5212 296.088 18.1342 299.02 18.8291C301.581 19.8511 299.191 36.5502 297.326 39.0135C296.582 39.8333 295.845 39.9907 293.644 39.6351C290.346 38.7705 249.539 40.1396 249.539 40.1396C248.81 39.6347 247.322 41.2742 246.96 40.7734C246.241 39.2751 180.075 40.8597 174.195 40.7946C170.888 40.7579 173.472 39.7929 169.424 40.2448C160.964 40.979 142.231 40.1089 135.606 41.029C130.452 41.7999 129.35 41.7877 124.213 41.0683C119.074 40.5145 91.8737 41.0409 88.9194 42.3329C88.1808 42.6559 87.4477 42.4822 87.4514 42.1511C87.4514 42.1511 68.3477 41.608 67.9821 41.4384C67.9857 41.1072 67.2527 40.9335 66.5159 41.0909C65.4099 41.4098 45.1836 42.676 44.8272 41.6784C43.7597 38.5202 45.3745 25.4557 47.616 22.1685C49.8592 18.7158 63.4127 22.6749 74.0926 20.6405L124.071 20.6979L134.742 19.4915C136.199 20.6668 140.64 17.9009 143.557 19.9204C144.65 20.7605 153.469 20.8583 155.316 20.0508C156.793 19.4048 200.503 21.3799 204.938 19.1107C212.634 21.0176 244.634 18.5572 251.988 18.142Z" fill="#FFAE60"/>
</svg>
