<svg width="65" height="16" viewBox="0 0 65 16" fill="none" xmlns="http://www.w3.org/2000/svg">
<path opacity="0.7" d="M52.4382 0.145118C53.808 1.56524 63.5031 -0.00880765 64.2369 0.401476C64.8766 1.0108 64.2296 11.1166 63.7547 12.6124C63.5657 13.1106 63.3804 13.2083 62.8291 13.0007C62.0041 12.4891 51.7614 13.4551 51.7614 13.4551C51.5799 13.1522 51.2018 14.1486 51.1124 13.847C50.9364 12.9434 34.3303 14.1255 32.8553 14.106C32.0257 14.095 32.6765 13.5028 31.6597 13.7898C29.5348 14.2623 24.8372 13.7996 23.1723 14.3784C21.877 14.8619 21.6005 14.8583 20.3136 14.4407C19.0258 14.1232 12.1996 14.5335 11.4546 15.3248C11.2684 15.5226 11.085 15.42 11.0868 15.2198C11.0868 15.2198 6.29512 14.9561 6.20387 14.8547C6.20573 14.6544 6.02229 14.5519 5.83699 14.6496C5.55858 14.8462 0.480075 15.6802 0.393469 15.0782C0.134588 13.1721 0.576783 5.26671 1.14849 3.27144C1.72112 1.17603 5.11055 3.52418 7.79598 2.25789L20.3358 2.12349L23.0166 1.35785C23.3788 2.06364 24.5008 0.376077 25.2272 1.5874C25.4991 2.09171 27.7115 2.121 28.1771 1.62646C28.5495 1.23082 39.5111 2.27723 40.6303 0.890059C42.5559 2.01712 50.5918 0.421097 52.4382 0.145118Z" fill="#FFAE60"/>
</svg>
