<?xml version="1.0" encoding="utf-8"?>
<!-- Generator: Adobe Illustrator 24.2.3, SVG Export Plug-In . SVG Version: 6.00 Build 0)  -->
<svg version="1.1" id="Layer_1" xmlns="http://www.w3.org/2000/svg" xmlns:xlink="http://www.w3.org/1999/xlink" x="0px" y="0px"
	 viewBox="0 0 65 16" style="enable-background:new 0 0 65 16;" xml:space="preserve">
<style type="text/css">
	.st0{opacity:0.7;fill:#3675F0;enable-background:new    ;}
</style>
<path class="st0" d="M52.4,0.1C53.8,1.6,63.5,0,64.2,0.4c0.6,0.6,0,10.7-0.5,12.2c-0.2,0.5-0.4,0.6-0.9,0.4
	c-0.8-0.5-11.1,0.5-11.1,0.5c-0.2-0.3-0.6,0.7-0.6,0.4c-0.2-0.9-16.8,0.3-18.3,0.3c-0.8,0-0.2-0.6-1.2-0.3c-2.1,0.5-6.8,0-8.5,0.6
	c-1.3,0.5-1.6,0.5-2.9,0.1c-1.3-0.3-8.1,0.1-8.9,0.9c-0.2,0.2-0.4,0.1-0.4-0.1c0,0-4.8-0.3-4.9-0.4c0-0.2-0.2-0.3-0.4-0.2
	c-0.3,0.2-5.4,1-5.4,0.4C0.1,13.2,0.6,5.3,1.1,3.3c0.6-2.1,4,0.3,6.6-1l12.5-0.1L23,1.4c0.4,0.7,1.5-1,2.2,0.2
	c0.3,0.5,2.5,0.5,2.9,0c0.4-0.4,11.3,0.7,12.5-0.7C42.6,2,50.6,0.4,52.4,0.1z"/>
</svg>
