<svg width="192" height="59" viewBox="0 0 192 59" fill="none" xmlns="http://www.w3.org/2000/svg">
<path opacity="0.7" d="M57.4681 45.8026C54.3114 44.4125 43.6556 49.3765 40.8828 50.303C39.3642 50.9365 38.1016 51.4057 37.6067 51.3818C35.9004 50.7689 24.7754 34.6757 23.9138 31.9826C23.709 31.0889 23.9735 30.7482 25.2106 30.8081C26.4476 30.8679 44.3809 24.1349 45.6435 23.6657C46.1213 24.0423 45.9592 22.2669 46.4284 22.8199C47.1365 23.5612 62.4676 19.3536 63.7218 19.0608C68.7383 17.8894 63.4829 18.8725 75.7597 16.2848C79.2662 15.5706 82.0218 14.9969 82.5252 14.8445C84.2742 14.5756 83.4637 15.9505 85.2382 15.1526C87.2517 14.5429 90.7496 14.0051 94.2389 13.6437C106.448 12.4668 102.805 10.8764 108.461 11.8571C110.918 12.3295 125.592 11.4487 127.136 10.2861C127.401 9.94535 127.887 10.1456 127.87 10.4983C127.87 10.4983 137.997 11.3418 138.227 11.7065C138.21 12.0592 138.697 12.2595 138.953 12.0951C139.208 11.9307 141.956 11.5334 144.933 11.5007C147.663 11.456 150.385 11.5877 150.598 12.305C150.683 15.6676 148.03 29.5033 146.631 32.7941C145.223 36.2612 139.737 31.7535 134.687 33.6302C122.307 33.2081 115.098 33.5663 112.36 33.7873L107.821 35.3353C106.883 34.2294 105.739 37.3557 103.854 35.3201C103.146 34.5788 99.17 34.74 98.6326 35.5978C98.3681 35.9385 93.3942 36.2281 88.1559 36.8585C85.6562 37.2678 82.909 37.6652 80.9041 38.0985C78.8992 38.5318 77.628 39.1773 77.3465 39.8707C72.4494 38.5732 61.2817 43.866 57.4681 45.8026Z" fill="#FFAE60"/>
<path opacity="0.7" d="M41.2413 32.6441C35.6532 30.2526 12.6949 38.3333 10.2293 38.0373C9.24818 37.813 6.98736 33.2846 4.99101 28.4155C2.99467 23.5464 1.50168 18.5249 1.56994 17.1141C1.62113 16.056 2.13303 15.7272 3.85639 15.9874C3.85639 15.9874 32.6673 9.95741 36.1652 9.41961C36.6344 9.9726 37.479 7.89234 37.6923 8.6097C37.9227 8.97436 41.4035 8.78926 46.147 8.13496C51.1294 7.66899 57.6134 6.92214 64.0888 6.35164C76.0414 5.33911 90.9459 4.82292 93.4286 4.76627C96.1586 4.7216 94.1196 5.86027 97.1142 5.47488C103.846 4.74 118.136 6.66874 123.118 6.20276C127.102 5.86525 128.092 5.91313 131.761 6.97443C133.962 7.61121 156.877 10.6643 158.899 9.87834C159.65 9.7379 159.889 9.92622 159.872 10.2789L166.979 12.0369C170.408 12.9098 174.077 13.9711 173.821 14.1355C173.804 14.4882 174.034 14.8529 174.537 14.7005C175.544 14.3957 191.037 17.0896 190.73 18.3121C189.826 21.6268 181.286 34.1171 178.172 36.9714C176.61 38.4867 174.17 37.6616 171.005 36.4479C167.84 35.2342 164.18 33.9965 160.204 34.1577C157.756 33.5089 145.232 30.9586 132.178 29.0897C125.524 28.2375 128.749 28.2167 119.535 29.0083C119.074 28.2789 118.059 28.7601 117.061 28.8885C115.807 29.1814 114.561 29.2979 113.631 28.0156C112.931 27.0979 107.011 26.4579 105.731 27.2798C105.475 27.4442 103.496 27.3484 100.527 27.2048C96.3206 27.0013 74.8042 25.7835 72.2021 28.309C66.5799 26.6229 47.2816 30.8152 41.2413 32.6441Z" fill="#FFAE60"/>
</svg>
