<svg width="303" height="35" fill="none" xmlns="http://www.w3.org/2000/svg"><path opacity=".7" d="M292.605 19.802l.4.4c.6.6-.1-.5 1.9-1.4 2.3-1 0 0 4.3-1s0 0 .8-1.2 1.3-.6 1.9-1.6c.7-1 0-1.5 0-1.5v-2.1c-2-1.7-5.2-4.5-5.3-4.6-1-1 .1-.7-2.3-2.3-6.7-4.5-14.3-5.4-22.1-3.7-18.5 4.2-30.1 22.6-35.8 16.5-.6-.6-1-1.4-1-1.5.1-.3-1.4-.9-1.4-1.4-.9-1.3-1.5-2.1-2.1-3.1-7.4-10.1-19.1-10.9-28.7-5.5-2.6 1.5-4.7 3.1-6.4 4.7-1.4 1.3-2.6 2.4-3.5 3.4-3.3 2.9-5.1 3-6.1 3.7-.3.2-.7.3-.9.1h-.6c-1.1 0-6.1 1-11-3.1.1-.2-.2-.5-.7-.7-6.3-2.4-16.6-22.1-40.9-4.8-2.8 2-8.6 8.1-14.3 8.2-1.8 0-3-.6-4.4-1.7-.8-.6-6.6-5.6-6.8-5.8-1-1 .1-.7-2.3-2.3-6.6-4.5-14.2-5.4-22-3.6-18.5 4.2-30.1 22.6-35.7 16.5-.6-.6-1-1.4-1-1.5.1-.3-1.4-.9-1.4-1.4-.9-1.3-1.5-2.1-2.1-3.1-7.5-10-19.2-10.9-28.7-5.4-2.6 1.5-4.7 3.1-6.4 4.7-1.7 1.5-3 2.9-4 3.9s-1.7 1.8-2 2c-1.5 1.3-1.9 2-2 2.9-.2 2.6 5.6 11.5 7.4 10.2 2.2-1.8 9.5-13.7 17.6-14.6 3.7-.4 6.2 1.2 7 3.8 3 3.7 9.7 17 25.2 10.7 7.6-3.1 13.6-10.1 19.7-12.3.6-.7 3.1-2.4 6.5-3.7 1.8-.6 3.7-1.1 5.5-1.2 15.6-.9 13.7 18.4 35.9 13.1 3.6-.9 4.3-.4 7.6-2.8 1.5-1.1 2.6-2.1 3.3-2.2 5.9-4.7 7.9-7.3 12.7-8.8 12.6-4.1 15.9 20.6 41.3 14.6 3.2-.8 6.2-2.1 8.7-3.5 2.5-1.4 5.8-4 7.4-6.8 2.5-2.1 5.2-3.8 8.1-4.1 3.7-.4 6.2 1.2 7 3.8 3 3.7 9.7 17 25.2 10.7 7.6-3.1 13.6-10.1 19.7-12.3.6-.7 3.1-2.4 6.5-3.7 1.8-.6 3.7-1.1 5.5-1.2 7.4-.3 10.9 3.8 14.8 7.6z" fill="#FFAE60"/></svg>