<svg width="107" height="85" viewBox="0 0 107 85" fill="none" xmlns="http://www.w3.org/2000/svg">
<g clip-path="url(#clip0)">
<path d="M101.449 55.8243C100.709 48.3344 100.12 40.7935 98.7945 33.3201C98.6478 32.3796 97.4009 32.4381 97.4447 33.3232C97.5498 38.4168 98.0615 43.464 98.4973 48.5367C89.5568 32.4609 73.9772 20.5025 56.542 17.3551C36.678 13.763 15.8322 21.838 3.9509 38.5123C3.60416 38.9886 4.22783 39.5891 4.67759 39.1682C17.3077 24.2222 36.7222 15.9077 56.1797 19.5463C74.1788 22.8643 90.3117 35.7168 98.5155 53.1196C98.624 53.4431 98.8301 53.5539 99.0633 53.7456C99.0904 53.8265 99.0688 54.0137 99.0959 54.0946C93.5925 51.5323 87.8942 49.3953 82.028 47.7646C80.6455 47.4187 80.2832 49.6098 81.6657 49.9557C87.9168 51.7272 94.0002 54.0049 99.9428 56.8698C100.561 57.2022 101.493 56.7094 101.449 55.8243Z" fill="#3675F0"/>
</g>
<defs>
<clipPath id="clip0">
<rect width="58.0934" height="91.728" fill="white" transform="translate(87.6139) rotate(71.4499)"/>
</clipPath>
</defs>
</svg>
