<svg width="141" height="27" viewBox="0 0 141 27" fill="none" xmlns="http://www.w3.org/2000/svg">
<path d="M114.599 18.6107C114.599 19.8929 113.571 20.9554 112.286 20.9554C111.001 20.9554 109.936 19.8929 109.936 18.6107C109.936 17.3285 111.001 16.3027 112.286 16.3027C113.571 16.3027 114.599 17.3285 114.599 18.6107Z" fill="#1A1A1A"/>
<path d="M139.274 18.867V0.0366211H133.399V2.12482H135.125V18.867H133.399V20.9552H141V18.867H139.274Z" fill="#1A1A1A"/>
<path d="M125.174 18.7938C123.522 18.7938 121.502 17.0719 121.502 13.5183V13.4817C121.502 9.92811 123.522 8.20627 125.174 8.20627C127.304 8.20627 128.699 9.45186 128.699 13.5183C128.699 17.5848 127.304 18.7938 125.174 18.7938ZM126.166 5.71509C124.036 5.71509 122.384 6.96068 121.392 8.90233L120.988 6.11807H115.627V8.20627H117.316V9.5984V24.9118H115.627V27H123.228V24.9118H121.502V18.3175C122.494 20.1126 124.109 21.285 126.166 21.285C130.645 21.285 132.885 17.8046 132.885 13.5183C132.885 9.19541 130.645 5.71509 126.166 5.71509Z" fill="#1A1A1A"/>
<path d="M79.3125 8.20636V6.11816H73.4376V8.20636H75.1633V18.8671H73.4376V20.9553H81.0383V18.8671H79.3125V8.20636Z" fill="#1A1A1A"/>
<path d="M51.7734 12.3094C51.7734 7.87655 50.3047 5.71509 46.7063 5.71509C44.4297 5.71509 42.4469 6.74087 41.3086 8.8657L40.9414 6.11807H35.5438V8.20627H37.2695V18.8671H35.5438V20.9553H43.1445V18.8671H41.4188V13.4817C41.4555 10.3311 43.4383 8.42608 44.907 8.42608C46.8899 8.42608 47.5875 9.12214 47.5875 12.2728V12.3094V18.8671H45.8984V20.9553H53.4625V18.8671H51.7734V12.3094Z" fill="#1A1A1A"/>
<path d="M77.2562 4.65265C78.5047 4.65265 79.5695 3.59023 79.5695 2.30801C79.5695 1.02578 78.5047 0 77.2562 0C75.9711 0 74.9062 1.02578 74.9062 2.30801C74.9062 3.59023 75.9711 4.65265 77.2562 4.65265Z" fill="#1A1A1A"/>
<path d="M13.0352 14.3609H12.9984C12.9984 14.3609 12.9984 14.3609 12.9984 14.3975C12.9984 17.6581 11.493 18.867 9.51016 18.867H5.875V10.5142H9.51016C11.493 10.5142 12.9984 11.0638 12.9984 14.3243C12.9984 14.3609 12.9984 14.3609 12.9984 14.3609H13.0719H13.0352ZM5.875 2.12482H8.29844C10.2813 2.12482 11.7867 2.4179 11.7867 4.98235C11.7867 5.01898 11.7867 5.01898 11.7867 5.01898H11.8602H11.7867C11.7867 5.01898 11.7867 5.01898 11.7867 5.05562C11.7867 7.62007 10.2813 8.57258 8.29844 8.57258H5.875V2.12482ZM12.4109 9.15874C14.5406 8.57258 15.9727 7.36362 15.9727 5.01898C15.9727 0.659416 12.5211 0.0366211 8.29844 0.0366211H0V2.12482H1.72578V18.867H0V20.9552H9.51016C13.7328 20.9552 17.1844 19.3433 17.1844 14.3609C17.1844 10.734 15.2016 9.52509 12.4109 9.15874Z" fill="#1A1A1A"/>
<path d="M63.3031 8.20623H65.7265L60.182 13.7381V0.0366211H56.0328H54.307V2.12482H56.0328V18.867H54.307V20.9552H61.9078V18.867H60.182V16.8521L62.8258 14.1777L65.5062 18.867H64.0375V20.9552H71.6383V18.867H70.0594L70.0961 18.8304L65.7633 11.2469L68.7742 8.20623H71.6383V6.11803H63.3031V8.20623Z" fill="#1A1A1A"/>
<path d="M107.549 5.71509C105.97 5.71509 103.767 6.92404 103.18 8.79243L102.776 6.11807H97.4149V8.20627H99.1039V18.8671H97.4149V20.9553H104.979V18.8671H103.29V13.4451C103.29 9.63503 104.905 8.42608 106.374 8.42608C106.595 8.42608 106.705 8.46271 106.815 8.53598C106.668 8.82906 106.558 9.15878 106.558 9.52513C106.558 10.7341 107.549 11.6866 108.724 11.6866C109.936 11.6866 110.891 10.7341 110.891 8.93897C110.891 6.59433 109.422 5.71509 107.549 5.71509Z" fill="#1A1A1A"/>
<path d="M28.457 13.5183V13.555C28.457 16.7056 26.5109 18.6472 24.6015 18.6472C23.1695 18.6472 22.2883 17.8046 22.2883 16.5957V16.559C22.2883 13.9213 26.8414 13.3352 28.457 13.1886V13.5183ZM32.6429 10.8074C32.6429 7.14385 30.8804 5.71509 25.5929 5.71509C21.8109 5.71509 18.7265 7.29039 18.7265 9.01224V9.52513C18.7265 10.7341 19.7179 11.6866 20.9297 11.6866C22.1047 11.6866 23.0961 10.7341 23.0961 9.52513C23.0961 9.12214 22.9859 8.75579 22.7656 8.46271C23.2429 8.02309 24.6015 7.83992 25.5929 7.83992V7.80328C27.4656 7.80328 28.457 8.75579 28.457 10.7707V10.8074V11.4301C27.8328 11.5034 26.5476 11.65 24.0508 12.0896C20.3789 12.749 18.139 14.7273 18.139 17.1818C18.139 19.8562 20.0484 21.3216 23.1695 21.3216C25.2625 21.3216 27.282 20.1493 28.6039 18.3542L29.1914 20.9552H34.332V18.8671H32.6429V10.8074Z" fill="#1A1A1A"/>
<path d="M85.775 12.3827C85.9586 9.78157 86.95 7.80328 89.2266 7.80328C91.5032 7.80328 92.4578 9.78157 92.6782 12.3827H85.775ZM89.2266 5.71509C83.9024 5.71509 81.5524 9.23205 81.5524 13.5183C81.5524 17.8413 83.9024 21.3216 89.2266 21.3216C92.4578 21.3216 95.0649 19.9661 96.2766 16.8888L93.2289 16.1194C92.4211 17.8779 91.3196 18.8671 89.2266 18.8671C86.9133 18.8671 85.9586 17.2185 85.775 14.5808H96.8641V14.1411C96.8641 9.23205 94.5141 5.71509 89.2266 5.71509Z" fill="#1A1A1A"/>
</svg>
