<svg width="234" height="37" viewBox="0 0 234 37" fill="none" xmlns="http://www.w3.org/2000/svg">
<g clip-path="url(#clip0)">
<path d="M15.5562 8.91445L15.6109 17.7214H17.8019V7.94783C17.8019 5.79979 15.7205 4.40356 13.6938 4.40356C11.941 4.45727 10.6812 4.88687 9.36655 5.69239C8.5997 4.88687 7.39464 4.40356 6.13481 4.40356C3.7247 4.45727 2.51964 5.20908 0.547729 6.60531V17.7214H2.73874V6.87381C3.06739 6.4979 3.99857 5.96089 4.8202 5.90719C7.06599 5.74609 8.05194 6.92751 8.05194 8.91445V17.7214H10.243V7.78673C10.243 7.46452 10.1882 7.08862 10.1334 6.82011C10.6264 6.4442 11.6123 5.90719 12.3792 5.85349C14.625 5.79979 15.5562 6.92751 15.5562 8.91445Z" fill="#0D0708"/>
<path d="M26.1826 4.40356C24.3202 4.40356 23.1152 4.72577 21.5267 5.53129L22.0744 6.76641C23.2795 6.1757 24.2655 5.85349 25.5801 5.85349C27.059 5.85349 28.4832 6.87381 28.4832 8.37744V9.66626H24.868C22.2935 9.61256 20.2669 11.1699 20.2669 13.7475C20.2121 16.1641 22.184 18.0436 24.5941 18.0973C27.2781 18.151 29.3596 17.1307 30.6194 15.8419V8.27004C30.6194 5.79979 28.4284 4.40356 26.1826 4.40356ZM28.4284 15.5734C28.045 16.003 26.8399 16.7011 25.5253 16.6474C23.7725 16.6474 22.4579 15.1975 22.4579 13.6938C22.4579 12.0291 23.7177 11.0625 25.4705 11.0625C26.566 11.0088 27.7163 11.0088 28.4284 11.0088V15.5734Z" fill="#0D0708"/>
<path d="M36.3707 7.24952C37.1376 6.6051 38.1235 6.06809 39.6025 6.06809H39.6572C39.9859 6.06809 40.4789 6.1755 40.9171 6.2292C41.1362 5.69219 41.5196 4.99407 41.7935 4.51076C39.9311 4.18856 38.6713 4.45706 37.3567 4.94037C36.0969 5.36998 35.0561 6.06809 34.2345 6.92731V17.6675H36.4255V7.24952H36.3707Z" fill="#0D0708"/>
<path d="M48.8047 9.07547L53.2963 5.1016L52.2008 4.08128L45.8469 9.71988V0H43.6011V17.7213H45.8469V11.7605L47.1067 10.6328L51.8174 17.7213H54.5014L48.8047 9.07547Z" fill="#0D0708"/>
<path d="M66.6615 15.5734C65.5112 16.1104 64.4157 16.6474 62.882 16.6474C60.3623 16.7548 58.5547 14.3919 58.8286 10.9551H67.0997C67.0449 6.8738 65.6755 4.34985 61.896 4.34985C57.9522 4.34985 56.528 7.94782 56.4733 11.3847C56.4733 13.6401 57.3497 15.6808 58.8286 16.9159C60.4171 18.2584 62.9368 18.2047 64.9087 17.6677C65.7851 17.3992 66.4971 17.0233 67.2092 16.54L66.6615 15.5734ZM61.9508 5.74608C63.9227 5.74608 64.7991 7.78672 64.7991 9.71995L64.7443 9.66625H58.8286C59.0477 7.78672 59.8146 5.74608 61.9508 5.74608Z" fill="#0D0708"/>
<path d="M73.9466 18.0435V16.8621C72.3581 16.8084 71.3721 16.3788 71.3721 14.6067V5.96081H76.9044V17.8824H79.1502V4.51088H78.0547H71.4269V0H69.1264V4.51088H67.5927V5.96081H69.1264V14.7141C69.1264 16.9695 70.9339 18.312 73.9466 18.0435Z" fill="#0D0708"/>
<path d="M84.9016 6.39053C85.6137 5.90722 86.764 5.37021 88.0238 5.31651C90.0505 5.26281 91.4199 6.44423 91.4199 8.48487V17.7214H93.7205V7.41085C93.7205 5.58501 92.2415 4.40359 90.5983 4.02769C88.955 3.65178 87.4213 3.97398 86.271 4.29619C84.8469 4.6721 83.8061 5.31651 82.6011 6.12202V17.7214H84.9016V6.39053Z" fill="#0D0708"/>
<path d="M101.718 17.9899C103.47 18.0436 104.73 17.5065 106.154 16.5936C106.209 16.9158 106.154 17.1843 106.154 17.5602C106.154 18.5269 106.1 20.2453 105.661 21.0508C105.278 21.7489 104.676 22.1248 103.963 22.447H106.812C107.086 22.1785 107.359 21.9637 107.524 21.6415C108.236 20.4064 108.291 18.4195 108.291 16.7547L108.345 6.49783C106.374 4.8331 103.799 4.02759 101.718 4.02759C98.1025 4.02759 96.3497 8.05516 96.3497 11.0624C96.2949 14.3382 97.9929 17.9899 101.718 17.9899ZM102.539 5.58492C103.909 5.58492 104.895 6.06823 106.045 6.76634V15.09C104.84 15.7881 103.744 16.4862 102.375 16.4862C99.6362 16.4862 98.8146 13.2642 98.8146 11.1161C98.8146 8.91438 99.6362 5.58492 102.539 5.58492Z" fill="#0D0708"/>
<path d="M122.313 17.7214L125.326 7.35712L128.832 17.7214H130.639L134.528 4.40356H132.94L130.091 14.4457L126.695 4.40356H124.614L121.711 14.4457L118.369 4.40356H116.069L120.451 17.7214H122.313Z" fill="#0D0708"/>
<path d="M143.511 16.9158C144.771 17.6677 146.086 18.151 147.619 18.151C151.344 18.0436 153.097 14.8215 153.097 11.3846C153.042 7.51816 151.399 4.0813 147.674 4.135L147.619 4.0813C143.018 4.135 141.211 6.44414 141.265 6.44414L141.211 22.8767H143.456V16.9158H143.511ZM143.456 6.65895C143.785 6.33674 145.319 5.47752 147.291 5.58493C150.139 5.69233 150.522 9.02179 150.522 11.2235C150.522 13.479 150.139 16.3788 147.126 16.5399C145.702 16.6473 144.223 15.8418 143.456 15.3585V6.65895Z" fill="#0D0708"/>
<path d="M157.808 7.0349C158.629 6.39048 159.615 5.79977 161.094 5.79977H161.149C161.477 5.79977 161.97 5.90718 162.409 5.96088C162.683 5.42387 163.011 4.72575 163.285 4.18874C161.423 3.86654 160.108 4.13504 158.739 4.61835C157.479 5.04796 156.383 5.74607 155.507 6.65899V17.7214H157.753V7.0349H157.808Z" fill="#0D0708"/>
<path d="M167.777 18.0973C170.515 18.151 172.652 17.0769 173.966 15.7881V8.00146C173.966 5.53122 171.721 4.02759 169.42 4.02759C167.558 4.02759 166.298 4.34979 164.655 5.20901L165.202 6.49783C166.407 5.90712 167.448 5.53122 168.817 5.53122C170.351 5.53122 171.775 6.55154 171.775 8.10887V9.45139H168.051C165.421 9.39769 163.34 11.0087 163.34 13.6401C163.23 16.1103 165.257 18.0436 167.777 18.0973ZM168.708 10.9013C169.858 10.8476 171.008 10.8476 171.721 10.8476V15.4659C171.337 15.8955 170.077 16.5936 168.763 16.5936C166.955 16.5936 165.64 15.1437 165.64 13.5864C165.64 11.8679 166.955 10.9013 168.708 10.9013Z" fill="#0D0708"/>
<path d="M179.334 17.7213V11.7605L180.594 10.6328L185.36 17.7213H187.989L182.292 9.07547L186.784 5.1016L185.688 4.08128L179.334 9.71988L179.389 0H177.089V17.7213H179.334Z" fill="#0D0708"/>
<path d="M190.508 14.7141C190.508 17.0232 192.316 18.3657 195.329 18.0435V16.8621C193.74 16.8084 192.754 16.3788 192.754 14.6067V5.96081H195.329V4.51088H192.809V0H190.563V4.51088H188.975V5.96081H190.508V14.7141Z" fill="#0D0708"/>
<path d="M202.121 18.2047C204.86 18.2047 206.393 17.4529 207.051 17.1307C207.105 17.4529 207.051 17.3992 207.051 17.7214C207.051 18.688 206.996 20.4065 206.558 21.2657C206.174 21.9638 205.572 22.3397 204.86 22.6619H207.763C208.036 22.3934 208.31 22.1786 208.475 21.8564C209.132 20.6213 209.242 18.2584 209.242 16.6474V4.40356H206.941V15.466C206.174 15.9493 204.805 16.6474 203.545 16.6474C201.518 16.7011 199.985 15.5734 199.985 13.5327V4.40356H197.684V14.2309C197.684 16.7548 200.039 18.2047 202.121 18.2047Z" fill="#0D0708"/>
<path d="M216.91 18.0973C218.937 18.0973 220.58 17.5603 221.949 16.7011L221.347 15.5197C220.087 16.1104 219.046 16.6474 217.567 16.5937C214.993 16.54 213.678 13.6939 213.678 11.2773C213.678 8.75336 214.883 5.69241 217.348 5.585C218.389 5.5313 219.704 5.90721 220.635 6.33682L221.292 5.1554C219.156 3.81287 216.253 3.75917 214.336 5.04799C212.418 6.33682 211.378 8.80706 211.378 11.331C211.323 14.6605 213.404 18.0436 216.91 18.0973Z" fill="#0D0708"/>
<path d="M225.455 16.9695C227.098 18.3121 229.673 18.3121 231.645 17.7214C232.576 17.4529 233.288 17.0232 234 16.5936L233.452 15.5196C232.302 16.0566 231.152 16.5936 229.563 16.6473C226.989 16.7547 225.181 14.3382 225.4 10.8476H233.89C233.836 6.65895 232.411 4.0813 228.577 4.0813C224.524 4.0813 223.045 7.73297 223.045 11.3309C223.045 13.5864 223.921 15.6807 225.455 16.9695ZM228.687 5.47753C230.713 5.47753 231.59 7.57186 231.59 9.5588L231.535 9.5051H225.51C225.674 7.57187 226.441 5.47753 228.687 5.47753Z" fill="#0D0708"/>
<path d="M3.56039 33.1871C3.56039 33.2408 3.50562 33.2945 3.45084 33.2945C3.39607 33.2945 3.39607 33.2408 3.34129 33.1871L1.64326 27.1726H0V34.9056H0.876404V27.9244C0.876404 27.8707 0.93118 27.817 0.985955 27.817C1.04073 27.817 1.04073 27.8707 1.04073 27.8707L2.95787 34.9056H3.83427L5.7514 27.9244C5.7514 27.8707 5.80618 27.8707 5.86095 27.8707C5.91573 27.8707 5.91573 27.9244 5.91573 27.9781V34.9593H6.79213V27.1726H5.14888L3.56039 33.1871Z" fill="#0D0708"/>
<path d="M9.03796 27.8707H9.69527V34.2611H9.03796V34.9056H11.5576V34.2611H10.8455V27.8707H11.5576V27.1726H9.03796V27.8707Z" fill="#0D0708"/>
<path d="M14.8441 31.3613H17.5829V30.3947H14.7894V28.1392H18.5688V27.1726H13.6938V34.9056H18.7879V33.9389H14.8441V31.3613Z" fill="#0D0708"/>
<path d="M23.9916 30.7708L22.4031 30.0727C22.1292 29.9653 21.5267 29.6431 21.5267 28.9449C21.5267 28.1931 22.2388 27.9246 22.7317 27.9246C23.6629 27.9246 23.9916 28.4616 24.375 29.1597L25.3062 28.6227C24.8132 27.5487 23.9368 26.958 22.7865 26.958C21.5267 26.958 20.5407 27.7635 20.5407 28.9449C20.5407 29.482 20.6503 29.8042 20.7598 30.019C21.0337 30.4486 21.5815 30.8245 22.0744 31.0393L23.4438 31.6837C24.2654 32.0596 24.4298 32.4892 24.4298 32.8651C24.4298 33.7243 23.7177 34.1002 23.0604 34.1002C22.0197 34.1002 21.4719 33.3484 21.2528 32.704L20.2668 33.3484C20.4312 33.7243 20.6503 34.1002 21.1432 34.5298C21.691 34.9595 22.4579 35.1206 22.9508 35.1206C23.389 35.1206 23.9916 35.1206 24.6489 34.5835C25.1418 34.1539 25.4157 33.5632 25.4157 32.8114C25.4157 32.2207 25.2514 31.9522 25.1418 31.7911C24.8132 31.2541 24.2654 30.9319 23.9916 30.7708Z" fill="#0D0708"/>
<path d="M26.9495 27.8707H27.6615V34.2611H26.9495V34.9056H29.4691V34.2611H28.757V27.8707H29.4691V27.1726H26.9495V27.8707Z" fill="#0D0708"/>
<path d="M41.9031 33.6169C41.7935 33.778 41.4649 34.2077 40.8624 34.2077C39.5478 34.2077 39.2739 32.5429 39.2739 30.8782C39.2739 30.7708 39.3287 29.6968 39.6025 28.9987C39.7669 28.569 40.0955 27.9783 40.9171 27.9783C41.7935 27.9783 42.1222 28.6765 42.2317 29.3746L43.2725 29.1598C43.2177 28.7839 43.1082 28.1931 42.5604 27.6561C42.0674 27.1728 41.4101 27.0117 40.9171 27.0117C38.6714 27.0117 38.2332 29.2672 38.2332 31.0393C38.2332 34.7447 40.2051 35.0669 40.8076 35.0669C41.0815 35.0669 41.9031 35.0669 42.5604 34.4225C43.0534 33.9391 43.2725 33.2947 43.3273 32.704L42.2317 32.4892C42.1222 32.8114 42.0674 33.2947 41.9031 33.6169Z" fill="#0D0708"/>
<path d="M46.7233 33.9389C46.6138 33.9389 46.4494 33.9389 46.2851 33.9926C46.2303 33.9926 46.1756 33.9926 46.1208 33.9926L46.066 33.9389C46.066 33.7778 46.066 33.7778 46.2851 33.4556C46.6138 32.9723 46.9424 32.5427 47.4354 31.6835L49.7907 27.8707V27.2263H44.7514V28.1929H46.8876C47.2163 28.1929 47.8736 28.1392 47.9831 28.1392C48.0927 28.1392 48.2022 28.1392 48.257 28.1392C48.3118 28.1392 48.3118 28.1929 48.3666 28.1929C48.3666 28.2466 48.3118 28.3003 48.3118 28.3003C48.257 28.4077 48.1475 28.5151 48.0927 28.5688C47.9831 28.7299 47.8736 28.891 47.764 29.0522L44.6418 34.1V34.9056H50.0098V33.9389H47.4902C47.2163 33.9389 46.9972 33.9389 46.7233 33.9389Z" fill="#0D0708"/>
<path d="M56.2542 31.7372C56.2542 32.0057 56.2542 32.3816 56.2542 32.8649C56.2542 32.9723 56.309 33.5093 56.309 33.6167C56.309 33.7241 56.309 33.7241 56.2542 33.7778H56.1994C56.1447 33.6704 55.9256 33.026 55.8708 32.9186L55.5421 32.1668L53.2416 27.1726H51.8722V34.9056H52.7486V29.7503C52.7486 29.6966 52.6938 28.5151 52.6938 28.3003C52.6938 28.2466 52.6938 28.2466 52.7486 28.1929H52.8034C52.8582 28.354 53.132 29.2132 53.4607 29.8577L55.7612 34.9056H57.1306V27.1726H56.2542V31.7372Z" fill="#0D0708"/>
<path d="M59.2122 27.8707H59.8695V34.2611H59.2122V34.9056H61.677V34.2611H61.0197V27.8707H61.677V27.1726H59.2122V27.8707Z" fill="#0D0708"/>
<path d="M64.8539 27.1726H63.7584V34.9056H64.8539V27.1726Z" fill="#0D0708"/>
<path d="M69.5098 27.3337V27.1726H68.25L65.1278 30.7706L68.25 34.9056H69.5646V34.7982L66.4424 30.7706L69.5098 27.3337Z" fill="#0D0708"/>
<path d="M36.0969 36.3555C35.7683 36.3555 35.5492 36.1944 35.5492 35.9259C35.5492 35.6037 35.823 35.2278 36.2065 34.9593H36.6995V33.9926H32.7556V31.415H35.4944V30.4484H32.7009V28.1929H36.4804V27.2263H31.6053V34.9056H35.4396C35.111 35.1741 34.7823 35.6037 34.7823 36.087C34.7823 36.6777 35.1657 36.9999 35.823 36.9999C36.1517 36.9999 36.4804 36.9462 36.7542 36.7851L36.5899 36.2481C36.4256 36.3018 36.2613 36.3555 36.0969 36.3555Z" fill="#0D0708"/>
<path d="M234.055 27.0117H72.7964V34.9058H234.055V27.0117Z" fill="#0D0708"/>
<path d="M78 1.34253C78.8216 1.34253 79.5337 0.751814 79.6432 0H76.3567C76.4662 0.751814 77.1783 1.34253 78 1.34253Z" fill="#0D0708"/>
</g>
<defs>
<clipPath id="clip0">
<rect width="234" height="37" fill="white"/>
</clipPath>
</defs>
</svg>
