<svg width="109" height="38" viewBox="0 0 109 38" fill="none" xmlns="http://www.w3.org/2000/svg">
<path d="M35.0509 8.39842C35.0509 9.548 34.7657 10.4421 34.1954 11.1127C33.625 11.7833 32.6744 12.1026 31.3753 12.1026H25.6401V19.2875H20V0.223633H31.4704C32.7695 0.223633 33.6567 0.511028 34.227 1.05388C34.7657 1.59674 35.0509 2.52279 35.0509 3.76817V8.39842ZM29.8544 3.32111H25.6401V8.97321H29.8544V3.32111Z" fill="#191919"/>
<path d="M50.975 15.5192C50.975 16.7327 50.6898 17.6268 50.0878 18.2974C49.5174 18.9361 48.6302 19.2873 47.4261 19.2873C46.8558 19.3193 46.3171 19.3193 45.8102 19.3193C45.3666 19.3512 44.9546 19.3512 44.511 19.3512H42.7049C42.3564 19.3512 41.9761 19.3512 41.5959 19.3193C41.1523 19.3193 40.7087 19.3193 40.2334 19.2873C38.9343 19.2554 38.0471 18.9361 37.4767 18.3293C36.9381 17.7226 36.6529 16.7966 36.6529 15.5192V4.50244H41.8494V15.9663H45.7785V4.50244H50.975V15.5192Z" fill="#191919"/>
<path d="M52.3692 19.2874V0H57.534V19.2874H52.3692Z" fill="#191919"/>
<path d="M71.9913 14.5932C71.9913 15.3596 71.9596 16.0302 71.8645 16.605C71.7695 17.1798 71.611 17.6907 71.3576 18.0739C71.1041 18.489 70.7555 18.7764 70.2802 19C69.8366 19.2235 69.2346 19.3193 68.4741 19.3193H59V16.1899H67.5869V13.5714H62.4855C61.725 13.5714 61.0913 13.4756 60.6477 13.284C60.1724 13.0924 59.8238 12.8369 59.602 12.4857C59.3802 12.1344 59.2218 11.6554 59.1267 11.1126C59.0634 10.5378 59 9.89913 59 9.13274C59 8.46216 59.0317 7.85543 59.1267 7.28064C59.2218 6.70585 59.3802 6.22686 59.6337 5.84367C59.8872 5.42854 60.2358 5.14115 60.711 4.88568C61.1863 4.66216 61.7884 4.53442 62.5488 4.53442H71.3259V7.66384H63.9747V10.2823H68.5058C69.2663 10.2823 69.9 10.3781 70.3436 10.5378C70.7872 10.7294 71.1358 10.9848 71.3892 11.368C71.6427 11.7193 71.8012 12.1664 71.8645 12.7092C71.9279 13.2521 71.9913 13.8907 71.9913 14.5932Z" fill="#191919"/>
<path d="M18.3779 33.6573C18.3779 34.9984 18.061 36.0522 17.3956 36.8186C16.7302 37.5531 15.6529 37.9362 14.132 37.9362H0V15.6152H13.023C13.7517 15.6152 14.4171 15.6791 14.9875 15.7749C15.5578 15.8707 16.0648 16.0942 16.4451 16.3816C16.857 16.7009 17.1421 17.1161 17.364 17.6589C17.5858 18.2018 17.6808 18.8724 17.6808 19.7346V22.7362C17.6808 23.1833 17.6491 23.6304 17.5858 24.0774C17.5224 24.5245 17.3956 24.9396 17.2055 25.2909C17.0154 25.6741 16.6985 25.9934 16.3183 26.2488C15.9064 26.5362 15.3994 26.6959 14.7657 26.7917C15.3677 26.8556 15.9064 26.9514 16.35 27.0472C16.7936 27.1749 17.2055 27.3665 17.4907 27.6539C17.8076 27.9413 18.0294 28.3245 18.1561 28.8354C18.3145 29.3463 18.3779 29.985 18.3779 30.8152V33.6573ZM11.5337 19.0959H6.55901V24.8119H11.5337V19.0959ZM11.8506 28.2606H6.55901V34.4556H11.8506V28.2606Z" fill="#191919"/>
<path d="M19.9622 37.9361V21.4907H25.634V37.9361H19.9622Z" fill="#191919"/>
<path d="M27.5035 37.9361V34.6151L35.3933 25.2907H27.852V21.4907H42.1424V24.8437L34.2209 34.1361H42.1741V37.9361H27.5035Z" fill="#191919"/>
<path d="M53.3277 37.9361V25.2269H48.955V37.9361H43.1881V25.3546C43.1881 22.768 44.4872 21.4907 47.0855 21.4907H55.2288C56.6864 21.4907 57.7003 21.81 58.239 22.4806C58.8093 23.1512 59.0945 24.1092 59.0945 25.3546V37.9361H53.3277Z" fill="#191919"/>
<path d="M66.3505 30.9428V33.9764H75.4761V37.9361H64.5444C63.7206 37.9361 63.0552 37.8084 62.5482 37.5848C62.0412 37.3294 61.6293 37.042 61.3441 36.6269C61.059 36.2437 60.8372 35.7966 60.7421 35.3176C60.6471 34.8386 60.5837 34.3916 60.5837 33.9445V25.7378C60.5837 24.3966 60.9005 23.3748 61.5659 22.6722C62.1997 21.9697 63.1819 21.5865 64.5127 21.5546C65.0831 21.5546 65.6534 21.5546 66.1604 21.5227C66.604 21.5227 67.0476 21.5227 67.4595 21.5227C67.9032 21.5227 68.22 21.4907 68.4101 21.4907C68.6002 21.4907 68.9171 21.4907 69.3607 21.5227C69.8043 21.5546 70.2162 21.5227 70.6598 21.5227C71.1668 21.5546 71.7055 21.5546 72.2758 21.5546C73.67 21.5865 74.6523 21.9058 75.2543 22.5764C75.8563 23.247 76.1415 24.2369 76.1415 25.5462V30.9428H66.3505ZM70.438 24.9714H66.3189V28.8033H70.438V24.9714Z" fill="#191919"/>
<path d="M91.6994 32.6992C91.6994 33.5295 91.6677 34.2959 91.5726 34.9345C91.4776 35.5732 91.2875 36.116 91.0023 36.5631C90.7171 37.0101 90.3369 37.3614 89.8299 37.5849C89.3229 37.8085 88.6575 37.9362 87.802 37.9362H77.2822V34.4555H86.8197V31.5496H81.1479C80.2924 31.5496 79.5953 31.4538 79.0883 31.2623C78.5814 31.0707 78.2011 30.7513 77.9159 30.3681C77.6625 29.953 77.4723 29.4421 77.409 28.8354C77.3139 28.1967 77.2822 27.4623 77.2822 26.632C77.2822 25.8975 77.3139 25.195 77.409 24.5883C77.504 23.9496 77.6941 23.4387 77.9476 22.9917C78.2328 22.5446 78.613 22.1933 79.12 21.9379C79.627 21.6824 80.3241 21.5547 81.1479 21.5547H90.9072V25.0354H82.7639V27.9412H87.802C88.6575 27.9412 89.3546 28.037 89.8299 28.2286C90.3369 28.4202 90.7171 28.7396 91.0023 29.1228C91.2875 29.5379 91.4459 30.0169 91.5092 30.6236C91.5726 31.2303 91.6994 31.9009 91.6994 32.6992Z" fill="#191919"/>
<path d="M109 33.721C109 35.0621 108.683 36.084 108.018 36.7865C107.352 37.521 106.37 37.8722 105.071 37.9042C104.405 37.9361 103.835 37.9361 103.265 37.9361C102.79 37.968 102.314 37.968 101.807 37.968H99.811C99.3991 37.968 98.9872 37.968 98.5753 37.9361C98.1 37.9361 97.593 37.9361 97.0543 37.9042C95.6285 37.8722 94.6145 37.521 94.0125 36.8504C93.4104 36.1798 93.0936 35.126 93.0936 33.721V21.4907H98.8604V34.2319H103.233V21.4907H109V33.721Z" fill="#191919"/>
</svg>
