<svg width="303" height="35" viewBox="0 0 303 35" fill="none" xmlns="http://www.w3.org/2000/svg">
<path opacity="0.7" d="M292.605 19.8016C292.705 19.9016 292.905 20.1016 293.005 20.2016C293.605 20.8016 292.905 19.7016 294.905 18.8016C297.205 17.8016 294.905 18.8016 299.205 17.8016C303.505 16.8016 299.205 17.8016 300.005 16.6016C300.805 15.4016 301.305 16.0016 301.905 15.0016C302.605 14.0016 301.905 13.5016 301.905 13.5016V11.4016C299.905 9.70165 296.705 6.90165 296.605 6.80165C295.605 5.80165 296.705 6.10165 294.305 4.50165C287.605 0.00164604 280.005 -0.898354 272.205 0.801646C253.705 5.00165 242.105 23.4016 236.405 17.3016C235.805 16.7016 235.405 15.9016 235.405 15.8016C235.505 15.5016 234.005 14.9016 234.005 14.4016C233.105 13.1016 232.505 12.3016 231.905 11.3016C224.505 1.20165 212.805 0.401646 203.205 5.80165C200.605 7.30165 198.505 8.90165 196.805 10.5016C195.405 11.8016 194.205 12.9016 193.305 13.9016C190.005 16.8016 188.205 16.9016 187.205 17.6016C186.905 17.8016 186.505 17.9016 186.305 17.7016C186.305 17.7016 186.105 17.7016 185.705 17.7016C184.605 17.7016 179.605 18.7016 174.705 14.6016C174.805 14.4016 174.505 14.1016 174.005 13.9016C167.705 11.5016 157.405 -8.19835 133.105 9.10165C130.305 11.1016 124.505 17.2016 118.805 17.3016C117.005 17.3016 115.805 16.7016 114.405 15.6016C113.605 15.0016 107.805 10.0016 107.605 9.80165C106.605 8.80165 107.705 9.10165 105.305 7.50165C98.7051 3.00165 91.1051 2.10165 83.3051 3.90165C64.8051 8.10165 53.205 26.5016 47.605 20.4016C47.005 19.8016 46.605 19.0016 46.605 18.9016C46.705 18.6016 45.205 18.0016 45.205 17.5016C44.305 16.2016 43.705 15.4016 43.105 14.4016C35.605 4.40165 23.905 3.50165 14.405 9.00165C11.805 10.5016 9.70505 12.1016 8.00505 13.7016C6.30505 15.2016 5.00505 16.6016 4.00505 17.6016C3.00505 18.6016 2.30505 19.4016 2.00505 19.6016C0.505047 20.9016 0.105047 21.6016 0.00504729 22.5016C-0.194953 25.1016 5.60505 34.0016 7.40505 32.7016C9.60505 30.9016 16.905 19.0016 25.005 18.1016C28.705 17.7016 31.205 19.3016 32.005 21.9016C35.005 25.6016 41.705 38.9016 57.205 32.6016C64.805 29.5016 70.8051 22.5016 76.9051 20.3016C77.5051 19.6016 80.0051 17.9016 83.4051 16.6016C85.2051 16.0016 87.105 15.5016 88.9051 15.4016C104.505 14.5016 102.605 33.8016 124.805 28.5016C128.405 27.6016 129.105 28.1016 132.405 25.7016C133.905 24.6016 135.005 23.6016 135.705 23.5016C141.605 18.8016 143.605 16.2016 148.405 14.7016C161.005 10.6016 164.305 35.3016 189.705 29.3016C192.905 28.5016 195.905 27.2016 198.405 25.8016C200.905 24.4016 204.205 21.8016 205.805 19.0016C208.305 16.9016 211.005 15.2016 213.905 14.9016C217.605 14.5016 220.105 16.1016 220.905 18.7016C223.905 22.4016 230.605 35.7016 246.105 29.4016C253.705 26.3016 259.705 19.3016 265.805 17.1016C266.405 16.4016 268.905 14.7016 272.305 13.4016C274.105 12.8016 276.005 12.3016 277.805 12.2016C285.205 11.9016 288.705 16.0016 292.605 19.8016Z" fill="#FFAE60"/>
</svg>
