<?xml version="1.0" encoding="utf-8"?>
<!-- Generator: Adobe Illustrator 24.2.3, SVG Export Plug-In . SVG Version: 6.00 Build 0)  -->
<svg version="1.1" id="Layer_1" xmlns="http://www.w3.org/2000/svg" xmlns:xlink="http://www.w3.org/1999/xlink" x="0px" y="0px"
	 viewBox="0 0 246.7 55.1" style="enable-background:new 0 0 246.7 55.1;" xml:space="preserve">
<style type="text/css">
	.st0{opacity:0.7;fill:#FFAE60;enable-background:new    ;}
</style>
<g>
	<path class="st0" d="M128.7,55.1c-7.6,0-14.9-0.1-21.4-0.2c-11.1-0.2-19.6-0.4-22.3-0.3c-4.9-0.5-14-1.1-22.7-1.9
		c-5.1-0.4-10.7-1-16.5-1.7c-2.9-0.4-6-0.8-8.9-1.2C10.9,45.6-5.6,37.5,1.8,27.1C7.3,19.1,39.8,6.3,80.6,1.9c2.9-0.4,5.6-0.5,8-0.8
		C98.6,0.2,106.2,0,108,0c4.9,0.3-0.4,6.8-2.2,8.6c-1.1,1.1-2,1.9-3.1,2.3c-1.3,0.5-3.1,0.7-7.1,0.8c-23.4,0.7-59.9,9.9-65.9,18.9
		c-0.9,0.2,0.9,1.1,0.2,1.2c-0.4,0.1-1.1,1.3,0.7,2.6c10.7,8.5,74.2,9.9,98.4,9.7L128.7,55.1z"/>
	<path class="st0" d="M144.7,4.5c-5.8,0.2-10.7,0.4-14,0.7c-0.7,0.1-1.3,0.1-1.8,0.1c-0.9,0-1.6,0.1-2.2,0.1
		c-0.9,0.1-1.3,0.1-1.3,0.1C112.7,7,98.6,8.5,87.5,10.1c-11.1,1.6-19.6,3.2-21.2,4.4c-3.1,2.6-0.9,9.9,2.9,11
		c0.7,0.2,10.9-1.9,21.4-3.8c10.5-1.9,20.9-3.5,22-3.8c0.9-0.3,2.2-0.4,2.7-0.2c0,0,0.7-0.1,1.8-0.2c2.4-0.3,6.7-0.6,11.8-1.1
		c7.4-0.5,16.5-1.1,25.6-1c0,0.2,1.1,0.3,2.7,0.1c1.6-0.2,6.2-0.3,12.2,0c16.9,0.6,31,3.3,38.5,6c4.5,1.6,6.9,3,7.6,3.7
		c1.8,1.6,3.1,3.8,2.9,5.6c-2.2,6.5-33.4,10.4-50.3,12c-8,0.7-2.7-0.1-10,0.3c-8.9,0.4-17.8,0.7-29.4,0.8v10.8
		c5.8,0,11.6-0.1,17.6-0.2c45.2-0.7,60.6-5.2,66.4-6.5c8.7-1.9,16.9-4.2,16.9-4.2c9.8-1.7,13.8-7.8,15.6-8.8
		C256.3,18.4,205.8,2.6,144.7,4.5z"/>
</g>
</svg>
