<svg width="247" height="55" viewBox="0 0 247 55" fill="none" xmlns="http://www.w3.org/2000/svg">
<g clip-path="url(#clip0)">
<path opacity="0.7" d="M128.734 55C121.162 55 113.812 54.9119 107.353 54.8237C96.2165 54.6474 87.7531 54.383 85.0804 54.5593C80.1805 54.0305 71.0488 53.4135 62.3626 52.7083C57.24 52.2676 51.6719 51.7388 45.8811 51.0337C42.9857 50.6811 39.8676 50.2404 36.9722 49.7997C10.9136 45.4808 -5.56793 37.3718 1.78193 26.9712C7.35001 19.0385 39.8676 6.25802 80.6259 1.76283C83.5213 1.41026 86.194 1.23398 88.644 0.969558C98.6665 0.0881473 106.239 -0.0881348 108.021 -0.0881348C112.921 0.176288 107.575 6.69872 105.794 8.54969C104.68 9.60738 103.789 10.4888 102.676 10.8414C101.339 11.3702 99.5574 11.5465 95.5484 11.6346C72.1624 12.3397 35.6358 21.5064 29.6223 30.4968C28.7314 30.6731 30.5132 31.6426 29.845 31.7308C29.3996 31.8189 28.7314 33.0529 30.5132 34.375C41.2039 42.9247 104.68 44.2468 128.957 44.0705L128.734 55Z" fill="#FFAE60"/>
<path opacity="0.7" d="M144.77 4.40707C138.979 4.58335 134.079 4.84778 130.738 5.1122C130.07 5.20034 129.402 5.20034 128.957 5.20034C128.066 5.20034 127.398 5.28848 126.729 5.28848C125.839 5.37662 125.393 5.37662 125.393 5.37662C112.698 6.87502 98.6663 8.46156 87.5302 10.0481C76.394 11.6346 67.9305 13.2212 66.3715 14.4551C63.2533 17.0112 65.4806 24.3269 69.2669 25.4728C69.935 25.6491 80.1803 23.6218 90.6483 21.6827C101.116 19.7436 111.584 18.1571 112.698 17.8926C113.589 17.6282 114.925 17.5401 115.371 17.7164C115.371 17.7164 116.039 17.6282 117.152 17.5401C119.602 17.2757 123.834 16.9231 128.957 16.4824C136.307 15.9535 145.438 15.4247 154.57 15.5128C154.57 15.6891 155.683 15.7773 157.243 15.601C158.802 15.4247 163.479 15.3366 169.492 15.601C186.419 16.218 200.451 18.8622 208.023 21.5946C212.478 23.1811 214.928 24.5914 215.596 25.2965C217.378 26.883 218.714 29.0866 218.491 30.8494C216.264 37.3718 185.083 41.25 168.156 42.8366C160.138 43.5417 165.483 42.7484 158.133 43.101C149.224 43.5417 140.316 43.8061 128.734 43.8943V54.7356C134.525 54.7356 140.316 54.6475 146.329 54.5593C191.542 53.8542 206.91 49.359 212.701 48.0369C221.387 46.0978 229.628 43.8061 229.628 43.8061C239.427 42.1314 243.436 35.9616 245.218 34.992C256.354 18.3334 205.796 2.55611 144.77 4.40707Z" fill="#FFAE60"/>
</g>
<defs>
<clipPath id="clip0">
<rect width="247" height="55" fill="white"/>
</clipPath>
</defs>
</svg>
