<svg version="1.1" id="Layer_1" xmlns="http://www.w3.org/2000/svg" x="0" y="0" viewBox="0 0 246.7 55.1" xml:space="preserve"><style>.st0{opacity:.7;fill:#ffae60;enable-background:new}</style><path class="st0" d="M128.7 55.1c-7.6 0-14.9-.1-21.4-.2-11.1-.2-19.6-.4-22.3-.3-4.9-.5-14-1.1-22.7-1.9-5.1-.4-10.7-1-16.5-1.7-2.9-.4-6-.8-8.9-1.2-26-4.2-42.5-12.3-35.1-22.7 5.5-8 38-20.8 78.8-25.2 2.9-.4 5.6-.5 8-.8C98.6.2 106.2 0 108 0c4.9.3-.4 6.8-2.2 8.6-1.1 1.1-2 1.9-3.1 2.3-1.3.5-3.1.7-7.1.8-23.4.7-59.9 9.9-65.9 18.9-.9.2.9 1.1.2 1.2-.4.1-1.1 1.3.7 2.6 10.7 8.5 74.2 9.9 98.4 9.7l-.3 11z"/><path class="st0" d="M144.7 4.5c-5.8.2-10.7.4-14 .7-.7.1-1.3.1-1.8.1-.9 0-1.6.1-2.2.1-.9.1-1.3.1-1.3.1-12.7 1.5-26.8 3-37.9 4.6-11.1 1.6-19.6 3.2-21.2 4.4-3.1 2.6-.9 9.9 2.9 11 .7.2 10.9-1.9 21.4-3.8 10.5-1.9 20.9-3.5 22-3.8.9-.3 2.2-.4 2.7-.2 0 0 .7-.1 1.8-.2 2.4-.3 6.7-.6 11.8-1.1 7.4-.5 16.5-1.1 25.6-1 0 .2 1.1.3 2.7.1 1.6-.2 6.2-.3 12.2 0 16.9.6 31 3.3 38.5 6 4.5 1.6 6.9 3 7.6 3.7 1.8 1.6 3.1 3.8 2.9 5.6-2.2 6.5-33.4 10.4-50.3 12-8 .7-2.7-.1-10 .3-8.9.4-17.8.7-29.4.8v10.8c5.8 0 11.6-.1 17.6-.2 45.2-.7 60.6-5.2 66.4-6.5 8.7-1.9 16.9-4.2 16.9-4.2 9.8-1.7 13.8-7.8 15.6-8.8 11.1-16.6-39.4-32.4-100.5-30.5z"/></svg>