<svg width="247" height="55" fill="none" xmlns="http://www.w3.org/2000/svg"><g clip-path="url(#clip0)" fill="#FFAE60"><path opacity=".7" d="M128.734 55c-7.572 0-14.922-.088-21.381-.176-11.136-.177-19.6-.441-22.273-.265-4.9-.528-14.031-1.145-22.717-1.85-5.123-.441-10.691-.97-16.482-1.675a308.997 308.997 0 01-8.909-1.234c-26.058-4.32-42.54-12.428-35.19-22.83C7.35 19.038 39.868 6.258 80.626 1.763c2.895-.353 5.568-.529 8.018-.793C98.666.088 106.239-.088 108.021-.088c4.9.264-.446 6.787-2.227 8.638-1.114 1.057-2.005 1.939-3.118 2.291-1.337.53-3.119.706-7.128.794-23.386.705-59.912 9.871-65.926 18.862-.89.176.891 1.146.223 1.234-.445.088-1.114 1.322.668 2.644 10.69 8.55 74.167 9.872 98.444 9.696L128.734 55z"/><path opacity=".7" d="M144.77 4.407c-5.791.176-10.691.44-14.032.705-.668.088-1.336.088-1.781.088-.891 0-1.559.088-2.228.088-.89.089-1.336.089-1.336.089-12.695 1.498-26.727 3.085-37.863 4.671-11.136 1.587-19.6 3.173-21.159 4.407-3.118 2.556-.89 9.872 2.896 11.018.668.176 10.913-1.851 21.381-3.79 10.468-1.94 20.936-3.526 22.05-3.79.891-.265 2.227-.353 2.673-.177 0 0 .668-.088 1.781-.176 2.45-.264 6.682-.617 11.805-1.058 7.35-.528 16.481-1.057 25.613-.97 0 .177 1.113.265 2.673.089 1.559-.176 6.236-.264 12.249 0 16.927.617 30.959 3.261 38.531 5.994 4.455 1.586 6.905 2.996 7.573 3.702 1.782 1.586 3.118 3.79 2.895 5.552-2.227 6.523-33.408 10.401-50.335 11.988-8.018.705-2.673-.089-10.023.264-8.909.44-17.817.705-29.399.793v10.842c5.791 0 11.582-.088 17.595-.177 45.213-.705 60.581-5.2 66.372-6.522 8.686-1.94 16.927-4.23 16.927-4.23 9.799-1.676 13.808-7.845 15.59-8.815C256.354 18.333 205.796 2.556 144.77 4.407z"/></g><defs><clipPath id="clip0"><path fill="#fff" d="M0 0h247v55H0z"/></clipPath></defs></svg>