<svg width="335" height="35" viewBox="0 0 335 35" fill="none" xmlns="http://www.w3.org/2000/svg">
<path opacity="0.7" d="M334.205 13.1046L333.205 10.9046C333.205 10.9046 332.205 9.60461 331.405 8.60461C330.605 7.60461 330.405 6.80461 328.305 5.50461C326.305 4.20461 327.305 4.50461 325.405 3.90461C324.305 4.50461 323.305 5.20461 322.105 6.00461C319.305 8.00461 313.505 14.1046 307.805 14.2046C306.005 14.2046 304.805 13.6046 303.405 12.5046C302.605 11.9046 296.805 6.90461 296.605 6.70461C295.605 5.70461 296.705 6.00461 294.305 4.40461C287.605 0.00460863 280.005 -0.895391 272.205 0.804609C253.705 5.00461 242.105 23.4046 236.405 17.3046C235.805 16.7046 235.405 15.9046 235.405 15.8046C235.505 15.5046 234.005 14.9046 234.005 14.4046C233.105 13.1046 232.505 12.3046 231.905 11.3046C224.505 1.20461 212.805 0.404609 203.205 5.80461C200.605 7.30461 198.505 8.90461 196.805 10.5046C195.405 11.8046 194.205 12.9046 193.305 13.9046C190.005 16.8046 188.205 16.9046 187.205 17.6046C186.905 17.8046 186.505 17.9046 186.305 17.7046C186.305 17.7046 186.105 17.7046 185.705 17.7046C184.605 17.7046 179.605 18.7046 174.705 14.6046C174.805 14.4046 174.505 14.1046 174.005 13.9046C167.705 11.5046 157.405 -8.19539 133.105 9.10461C130.305 11.1046 124.505 17.2046 118.805 17.3046C117.005 17.3046 115.805 16.7046 114.405 15.6046C113.605 15.0046 107.805 10.0046 107.605 9.80461C106.605 8.80461 107.705 9.10461 105.305 7.50461C98.7051 3.00461 91.1051 2.10461 83.3051 3.90461C64.8051 8.10461 53.205 26.5046 47.605 20.4046C47.005 19.8046 46.605 19.0046 46.605 18.9046C46.705 18.6046 45.205 18.0046 45.205 17.5046C44.305 16.2046 43.705 15.4046 43.105 14.4046C35.605 4.40461 23.905 3.50461 14.405 9.00461C11.805 10.5046 9.70505 12.1046 8.00505 13.7046C6.30505 15.2046 5.00505 16.6046 4.00505 17.6046C3.00505 18.6046 2.30505 19.4046 2.00505 19.6046C0.505047 20.9046 0.105047 21.6046 0.00504729 22.5046C-0.194953 25.1046 5.60505 34.0046 7.40505 32.7046C9.60505 30.9046 16.905 19.0046 25.005 18.1046C28.705 17.7046 31.205 19.3046 32.005 21.9046C35.005 25.6046 41.705 38.9046 57.205 32.6046C64.805 29.5046 70.8051 22.5046 76.9051 20.3046C77.5051 19.6046 80.0051 17.9046 83.4051 16.6046C85.2051 16.0046 87.105 15.5046 88.9051 15.4046C104.505 14.5046 102.605 33.8046 124.805 28.5046C128.405 27.6046 129.105 28.1046 132.405 25.7046C133.905 24.6046 135.005 23.6046 135.705 23.5046C141.605 18.8046 143.605 16.2046 148.405 14.7046C161.005 10.6046 164.305 35.3046 189.705 29.3046C192.905 28.5046 195.905 27.2046 198.405 25.8046C200.905 24.4046 204.205 21.8046 205.805 19.0046C208.305 16.9046 211.005 15.2046 213.905 14.9046C217.605 14.5046 220.105 16.1046 220.905 18.7046C223.905 22.4046 230.605 35.7046 246.105 29.4046C253.705 26.3046 259.705 19.3046 265.805 17.1046C266.405 16.4046 268.905 14.7046 272.305 13.4046C274.105 12.8046 276.005 12.3046 277.805 12.2046C293.405 11.3046 291.505 30.6046 313.705 25.3046C317.305 24.4046 318.005 24.9046 321.305 22.5046C322.805 21.4046 323.905 20.4046 324.605 20.3046C329.105 17.0046 331.405 14.7046 334.205 13.1046Z" fill="#FFAE60"/>
</svg>
