<svg width="382" height="71" viewBox="0 0 382 71" fill="none" xmlns="http://www.w3.org/2000/svg">
<path opacity="0.7" d="M22.4571 49.7299C19.5402 46.5494 0.809423 41.1346 1.459 18.2406C1.5772 15.1773 1.88021 13.3843 2.12759 13.033C3.58406 11.6454 26.7925 16.1503 30.246 17.5468C31.3995 17.9522 31.6121 18.5018 30.8769 19.3758C30.3891 19.8983 30.0374 22.9527 30.8879 25.1511C31.5327 26.6197 32.6514 27.9261 37.0596 28.818C37.0387 29.3586 38.5022 27.7909 38.4744 28.5117C38.4605 28.8721 40.3005 29.6649 44.0221 30.1695C47.9773 30.683 51.2599 30.4488 55.2359 30.4217C56.6437 30.2956 58.285 30.1784 59.9193 30.2415C66.244 29.9442 72.8231 29.1152 77.9943 28.4124C83.399 27.7187 87.3889 27.3312 88.5633 27.1961C91.3789 26.9438 89.2289 28.1241 92.5254 27.5294C100.54 25.8536 115.723 26.259 120.661 25.5472C125.131 24.8174 126.065 24.8534 130.7 25.9346C131.627 26.1508 142.099 27.4572 147.207 28.3762C154.177 29.5474 160.892 31.2502 162.3 31.1241C163.007 30.9709 163.46 31.3493 163.446 31.7097C163.446 31.7097 168.053 33.5117 171.266 35.0794C174.939 36.8453 178.598 38.9716 178.598 38.9716C178.351 39.323 178.804 39.7014 179.271 39.7194C181.372 39.8005 196.03 47.7651 195.047 48.9904C192.842 51.6123 177.276 61.1177 173.952 62.4332C169.673 64.2532 166.463 56.5498 158.779 55.7119C156.939 54.919 155.326 54.3154 154.172 53.91C146.338 50.9007 137.069 48.7384 127.744 48.0176C124.221 48.4231 125.395 48.2879 120.457 48.9997C120.011 48.4411 119.063 48.7655 117.882 49.0808C114.098 50.198 116.296 47.7564 110.446 47.8916C108.571 47.9997 106.689 48.288 106.208 48.6304C105.968 48.8016 103.626 48.8917 100.577 49.1349C96.1271 49.3242 70.8144 50.8739 68.1697 52.757C65.3888 52.1083 59.5311 52.4237 54.1472 52.5769C43.613 52.8922 32.1519 52.9914 22.4571 49.7299Z" fill="#FFAE60"/>
<path opacity="0.7" d="M342.765 32.3135C345.532 33.3226 350.609 29.0069 351.019 18.3753C351.103 16.213 350.939 14.402 351.42 14.0596C352.869 12.8523 375.715 14.6362 379.841 16.7805C380.988 17.3661 381.193 18.0959 380.43 19.6907C380.176 20.2222 379.845 22.736 379.006 26.3129C376.446 38.1247 369.986 47.9815 356.661 53.9641C355.734 53.7478 354.943 56.0634 354.257 55.6759C354.257 55.6759 329.422 63.019 283.099 57.6223C280.071 57.325 282.674 56.5231 278.938 56.379C271.227 56.2619 255.221 52.9373 249.83 53.2707C245.381 53.4599 244.447 53.4239 240.519 52.1896C235.198 50.721 214.879 50.1174 212.007 51.8112C211.527 52.1536 211.06 52.1356 210.847 51.586C210.847 51.586 210.614 51.577 210.147 51.559C207.812 51.4689 204.77 51.532 203.369 51.4779C199.626 51.514 196.103 51.9194 196.11 51.7392C195.891 51.3698 195.431 51.1716 195.183 51.523C194.943 51.6942 187.848 53.7665 187.381 53.7484C183.837 54.6945 180.52 55.8297 180.074 55.2711C178.962 53.7845 173.923 51.0636 172.215 46.847C168.196 35.864 169.879 34.6657 172.723 33.6926C174.852 33.0529 176.734 32.7646 179.082 32.4943C187.31 31.3681 198.321 24.7548 244.643 30.1515L254.47 29.9893C255.355 31.2867 259.889 28.9352 262.133 31.3678C263.032 32.3048 270.228 33.6653 272.131 32.8364C272.845 32.503 282.362 34.3139 291.9 35.5843C301.437 36.8546 311.01 37.224 312.926 36.0347C317.76 38.0258 336.486 37.4852 342.765 32.3135Z" fill="#FFAE60"/>
</svg>
