<svg width="186" height="28" fill="none" xmlns="http://www.w3.org/2000/svg"><path opacity=".7" d="M28.928 17.095c-.72-2.175-3.063-3.655-6.307-3.307-7.389.784-13.966 11.138-15.949 12.791C5.05 27.711-.176 19.966.005 17.704c.09-.783.45-1.392 1.802-2.523l1.802-1.74c.9-.87 2.072-2.09 3.604-3.394 1.532-1.305 3.424-2.785 5.767-4.09 8.65-4.786 19.102-4.003 25.86 4.786.63.783 1.171 1.566 1.892 2.697 0 .435 1.351.957 1.261 1.219-.09.086.36.783.901 1.305 5.046 5.22 15.498-10.877 32.168-14.445C82.09-.047 88.848.736 94.975 4.74c2.162 1.392 1.171 1.131 2.072 2.001.18.174 5.406 4.525 6.127 5.047 1.262.957 2.433 1.48 3.965 1.48 5.046-.088 10.362-5.396 12.885-7.136 21.895-15.053 31.176 2.088 36.853 4.177.54.174.811.435.63.609 4.415 3.568 8.921 2.784 9.912 2.697h.54c.091.174.541.174.811-.087.901-.609 2.613-.696 5.857-3.48.451-.522 1.802-1.654 2.433-2.524l1.532-2.001c.27-.261.36-.435.45-.435 2.253.348 8.56 6.439 6.578 9.745-1.442 2.35-4.415 4.612-6.668 5.918-2.252 1.218-4.956 2.349-7.839 3.045-22.886 5.22-25.86-16.272-37.213-12.704-4.325 1.305-6.127 3.568-11.443 7.657-.631.087-1.622.957-2.974 1.915-2.973 2.088-3.604 1.653-6.848 2.436-20.003 4.61-18.381-12.271-32.347-11.4-1.712.087-3.424.435-4.956 1.044-3.064 1.044-5.316 2.524-5.857 3.22-5.406 1.914-10.812 8.005-17.75 10.702-14.057 5.221-20.094-6.352-22.797-9.571z" fill="#FFAE60"/></svg>